<svg width="24" height="24" viewBox="0 0 24 24" fill="none" xmlns="http://www.w3.org/2000/svg">
<g id="Monotone/54-telephone">
<path id="Vector" d="M4 6C4 7.83851 4.36212 9.65901 5.06569 11.3576C5.76925 13.0561 6.80049 14.5995 8.10051 15.8995C9.40053 17.1995 10.9439 18.2308 12.6424 18.9343C14.341 19.6379 16.1615 20 18 20" stroke="#4B3425" stroke-width="2" stroke-linejoin="round"/>
<path id="Vector_2" d="M4 6C4 4.34315 5.34315 3 7 3V3C8.65685 3 10 4.34315 10 6V6C10 7.65685 8.65685 9 7 9V9C5.34315 9 4 7.65685 4 6V6Z" stroke="#4B3425" stroke-width="2" stroke-linejoin="round"/>
<path id="Vector_3" d="M15 17C15 15.3431 16.3431 14 18 14V14C19.6569 14 21 15.3431 21 17V17C21 18.6569 19.6569 20 18 20V20C16.3431 20 15 18.6569 15 17V17Z" stroke="#4B3425" stroke-width="2" stroke-linejoin="round"/>
</g>
</svg>
