<svg width="150" height="100" viewBox="0 0 150 100" fill="none" xmlns="http://www.w3.org/2000/svg">
<g id="Company Logo">
<g id="Group">
<path id="Vector" d="M69.6909 61.1413C69.7547 61.15 69.7686 61.1526 69.8307 61.1607C70.8699 61.3019 71.891 61.4892 72.6727 61.8385C73.397 62.1584 73.8217 62.5631 74.2094 63.2846C74.7989 64.3787 74.8373 65.9115 74.3045 67.0716C73.9066 67.9348 73.033 68.6586 72.2355 69.0422C71.4072 69.4438 70.5912 69.6349 69.6554 69.7418C68.0185 69.922 66.2507 69.5829 64.7778 68.8705C63.9065 68.445 62.8424 67.7122 62.3056 66.7681C61.9109 66.0765 61.9235 65.1766 62.4037 64.5193C63.1691 63.4716 64.8086 63.2409 66.0435 63.2846C66.9849 63.3211 68.68 63.6121 69.5739 63.9301C69.8216 64.0196 70.7354 64.3756 70.8948 64.5389C71.0071 64.6524 71.0799 64.8174 71.0295 64.97C70.8252 65.5946 69.3073 65.924 68.8689 65.9901C67.6954 66.1698 67.0866 65.7257 65.7525 65.199C65.4213 65.0693 64.98 64.9254 64.6428 64.8943C64.0372 64.8366 63.3056 65.0062 63.19 65.6673C63.1326 66.0081 63.5321 66.3268 63.8369 66.4607C64.5525 66.7681 65.1343 66.8786 65.8386 66.8881C67.9192 66.9224 70.2574 66.5798 71.9592 65.374C72.1922 65.2078 72.421 64.9644 72.4234 64.6576C72.4308 64.0381 71.3447 63.6593 71.3447 63.6593C70.1984 63.1814 68.0802 62.9488 66.9891 62.8589C65.844 62.7598 64.0423 62.6115 63.6097 62.5478C63.1643 62.4842 62.6805 62.3943 62.2948 62.2215C61.9073 62.0465 61.5283 61.6547 61.4158 61.2213C61.2163 60.4401 61.4708 59.4815 61.9046 58.8573C63.0418 57.2226 65.7054 56.6017 67.6953 56.3551C69.6213 56.1155 72.735 56.1179 74.6267 57.1231C74.9187 57.2797 75.0679 57.4253 75.0069 57.7375C74.8837 58.3237 74.4431 58.7015 73.9091 58.867C73.3489 59.0453 72.1901 59.1148 71.6812 59.1468C69.4005 59.2747 66.6444 59.2077 64.4721 59.8C64.3019 59.8486 64.0079 59.9279 63.9123 60.0346C63.5723 60.4037 64.5435 60.5092 64.7515 60.5514C64.8134 60.5662 64.8254 60.5683 64.8899 60.5753L69.6909 61.1413ZM56.123 50.9716C56.123 50.9716 56.4939 50.4153 56.8048 49.9932C57.3707 49.2245 58.395 48.1584 59.1663 47.4984C59.4023 47.2969 59.6805 47.0685 59.6805 47.0685C59.6805 47.0685 59.2454 47.1135 58.9988 47.1639C58.4136 47.2778 57.5555 47.8482 57.1267 48.2167C56.4192 48.8224 55.6411 49.8069 55.9932 50.6818C56.0443 50.8054 56.123 50.9716 56.123 50.9716ZM60.0562 52.0242C61.1739 51.9471 62.2209 51.6253 63.1957 51.0846C64.1516 50.5497 65.5577 49.5066 65.4119 48.2804C65.3676 47.8835 65.1077 47.5838 64.7797 47.444C64.3533 47.2593 64.131 47.289 63.5864 47.4509C63.1907 47.5666 63.0125 47.6369 62.6388 47.8507C61.5423 48.4878 59.9877 49.8511 59.1436 50.9392C58.9488 51.1958 58.7515 51.4828 58.5972 51.6795C58.4998 51.8008 58.4241 51.9121 58.4335 51.9418C58.4672 52.0651 59.6197 52.0538 60.0562 52.0242ZM57.2104 54.1145C57.0951 54.2364 56.9731 54.5304 56.8467 54.7433C56.779 54.8572 56.6539 55.0039 56.571 55.0627C56.2801 55.2766 56.0337 55.2865 55.7528 55.0394C55.359 54.6911 55.1312 54.1523 55.1151 53.6282C55.1067 53.3996 55.1459 53.1465 55.1026 52.9537C55.031 52.6282 54.7052 52.2929 54.5296 51.9817C54.3234 51.6151 54.1566 50.9759 54.1358 50.5632C54.0651 49.2763 54.7434 48.0908 55.6246 47.1559C56.512 46.2104 57.673 45.4246 58.9357 44.8897C60.1292 44.387 61.8782 44.0443 63.1889 44.4982C63.6156 44.6444 64.21 45.0075 64.5088 45.388C64.5722 45.4669 64.6239 45.5523 64.689 45.594C64.7473 45.6312 64.8997 45.6458 65.021 45.6681C65.439 45.7406 66.0408 46.0571 66.2867 46.2679C66.7807 46.694 67.0513 47.1013 67.1764 47.6924C67.4275 48.8818 66.7426 50.1867 65.9625 50.9809C64.6267 52.3477 63.3075 53.3087 61.5987 53.9777C60.8481 54.2709 59.6791 54.5449 58.8276 54.4682C58.5631 54.4463 58.2915 54.3766 58.034 54.3596C57.9025 54.3482 57.4221 54.2243 57.3707 54.1894C57.307 54.1404 57.2248 54.0979 57.2104 54.1145ZM58.7365 56.7515C58.7886 56.7602 58.8688 56.7835 58.9378 56.8101C59.5368 57.038 59.7833 57.5924 59.9309 58.2014C60.2729 59.6155 60.4188 62.7441 60.4757 63.9686C60.5175 64.8878 60.5405 65.7921 60.579 66.7006C60.6117 67.47 60.673 68.4929 60.5126 69.2137C60.4544 69.4729 60.281 69.7744 60.0326 69.9288C59.7482 70.1109 59.1008 70.1248 58.745 70.0514C57.8678 69.87 57.5828 69.306 57.4576 68.4385C57.16 66.3686 57.3033 62.3063 57.479 60.5922C57.5373 60.026 57.7506 58.2119 58.0462 57.4513C58.1472 57.1948 58.3621 56.6782 58.7365 56.7515ZM32.0523 60.1953C32.0523 60.1953 30.7468 60.2878 29.8483 60.3875C28.7052 60.5106 26.5573 60.8814 25.3175 61.3242C24.9456 61.4573 24.1902 61.7735 24.1246 62.1558C24.0556 62.5522 24.3016 62.8621 24.5751 63.1828C24.7333 63.369 25.6287 64.2303 25.8798 64.4396C26.9322 65.3183 29.0663 66.6734 30.638 67.3314C31.178 67.5548 32.0713 67.8746 32.0713 67.8746C32.0713 67.8746 32.005 65.3311 32.0169 62.8256C32.0238 61.5039 32.0523 60.1953 32.0523 60.1953ZM55.9892 61.2076C56.064 61.8909 55.8884 63.1829 55.8579 63.3533C55.8023 63.7461 55.5061 64.6521 55.457 64.7626C55.2179 65.3132 54.9822 65.7644 54.7324 66.2144C54.3043 66.9848 53.2864 68.2061 52.6821 68.7288C50.435 70.6711 46.9564 71.7769 43.9721 72.1412C41.9471 72.3858 39.6202 72.3499 37.4745 71.9529C36.7361 71.8186 35.6372 71.5653 35.6372 71.5653C35.6372 71.5653 35.6407 72.0047 35.6055 72.3137C35.5885 72.4547 35.4823 72.8258 35.4228 72.946C35.2668 73.2683 35.0106 73.4345 34.6382 73.5061C34.1886 73.5895 33.7119 73.6173 33.2965 73.4397C32.6144 73.1528 32.3696 72.5147 32.2507 71.7788C32.1546 71.1902 32.054 70.1671 32.054 70.1671C32.054 70.1671 31.5438 69.9255 31.1184 69.7132C29.8116 69.0693 28.5706 68.2892 27.4848 67.4869C27.184 67.2624 25.8917 66.1801 25.6065 65.9114C24.8066 65.152 24.0871 64.3966 23.5397 63.4273C23.1141 62.67 22.9916 61.9979 23.3153 61.1955C23.7616 60.0771 25.3651 59.235 26.4625 58.7551C27.268 58.3995 29.7726 57.5817 30.8131 57.43C31.3045 57.3598 32.0667 57.2233 32.1136 57.1928C32.1327 57.1782 32.146 57.1657 32.1598 57.1499C32.1838 57.1161 32.2243 56.009 32.2165 55.604C32.2063 55.2058 32.5112 52.5905 32.6091 52.0374C32.6602 51.7384 32.8867 50.5871 33.118 50.2849C33.2692 50.0806 33.5367 50.0971 33.7548 50.2312C34.9481 50.9732 35.3106 53.5467 35.3994 54.856C35.4524 55.6538 35.4789 56.8538 35.4789 56.8538C35.4789 56.8538 36.8478 56.8133 37.6899 56.8372C38.5082 56.8562 39.4101 56.9854 40.2595 57.1207C41.3468 57.295 43.4663 57.7574 44.6819 58.3737C45.6829 58.8811 46.6198 59.7361 46.9234 60.641C47.2054 61.4705 47.1631 62.0445 46.7336 62.7931C46.2506 63.6384 45.337 64.2667 44.4106 64.3192C44.135 64.3351 43.0975 64.1972 42.7782 63.9501C42.653 63.8515 42.6595 63.6737 42.7498 63.5531C42.7841 63.5108 43.269 63.2529 43.5553 63.1025C43.6905 63.0302 43.8162 62.9414 43.9296 62.8382C44.1674 62.6288 44.3815 62.3983 44.3576 62.128C44.3247 61.7773 43.9535 61.5609 43.5997 61.4218C41.9398 60.7623 38.6256 60.215 37.0241 60.1202C36.3972 60.0834 35.5055 60.0519 35.5055 60.0519L35.694 68.8957C35.694 68.8957 36.4312 69.0361 37.0122 69.1303C37.3455 69.1808 38.758 69.3079 39.1333 69.3172C41.9911 69.3926 45.1808 69.1367 47.8035 67.8991C48.9549 67.3573 50.0113 66.6826 50.811 65.7693C51.8651 64.5609 52.4171 62.9071 52.271 61.1797C52.1108 59.2932 50.7831 57.0537 49.7228 55.69C46.9214 52.0874 42.1195 49.1239 37.8948 47.3864C33.5817 45.6138 29.3189 44.594 24.7415 44.4232C23.5615 44.3795 20.9885 44.439 19.6879 44.7988C19.5022 44.8512 19.3149 44.9137 19.1424 44.9525C19.0061 44.9858 18.7914 45.0761 18.7324 45.1237C18.7093 45.1432 18.6876 45.1642 18.6675 45.1867C18.6675 45.1867 18.7477 45.231 18.8243 45.2635C18.962 45.3236 19.542 45.3596 19.8421 45.4145C20.1106 45.465 20.3902 45.606 20.5008 45.8028C20.6059 45.9898 20.6191 46.1373 20.4934 46.2933C20.1987 46.6516 19.0895 46.5912 18.6011 46.5139C18.0935 46.433 17.4616 46.2777 17.3455 45.8358C17.2109 45.3153 17.4581 44.805 17.7252 44.3333C18.2619 43.3896 19.0306 42.8988 20.1563 42.5914C21.7552 42.1514 23.774 41.8438 25.2838 41.7861C28.7011 41.657 31.9353 42.2546 35.2462 43.2598C37.1412 43.8328 39.6221 44.7943 41.4383 45.6688C42.7416 46.2972 44.795 47.4528 45.9485 48.2079C46.3123 48.4481 48.4413 50.0123 48.7719 50.2873C49.4618 50.8513 50.3641 51.662 51.0176 52.3103C52.2817 53.5631 53.854 55.4833 54.6179 57.0074C54.8017 57.3724 54.9441 57.7314 55.1812 58.1544C55.2628 58.2993 55.6117 59.1661 55.6697 59.4165C55.7272 59.6642 55.8114 60.0284 55.8233 60.0428C55.8402 60.1758 56.0019 60.9205 55.9892 61.2076ZM98.9495 59.2522C97.3492 59.6212 93.1411 59.8261 93.1411 59.8261L92.6104 61.4883C92.6104 61.4883 94.7134 61.3088 96.2433 61.4686C96.2433 61.4686 96.739 61.411 96.7972 62.0313C96.817 62.6099 96.7481 63.2306 96.7481 63.2306C96.7481 63.2306 96.7164 63.6062 96.1841 63.7018C95.6073 63.7979 91.6513 63.9509 91.6513 63.9509L91.0107 66.1176C91.0107 66.1176 90.7727 66.6185 91.3062 66.4755C91.8019 66.3428 95.947 65.565 96.4868 65.6769C97.0654 65.8206 97.7057 66.5919 97.5206 67.2948C97.3 68.1661 93.1629 70.8046 90.6434 70.6204C90.6434 70.6204 89.3195 70.7058 88.2005 68.9191C87.1584 67.2165 88.5955 63.9926 88.5955 63.9926C88.5955 63.9926 87.9368 62.4877 88.4141 61.9776C88.4141 61.9776 88.6982 61.7198 89.5263 61.6615L90.5403 59.5637C90.5403 59.5637 89.3853 59.6432 88.6982 58.7935C88.0581 57.9875 88.0045 57.617 88.4952 57.3944C89.02 57.1352 93.8299 56.2574 97.1397 56.3687C97.1397 56.3687 98.29 56.2558 99.2876 58.251C99.2878 58.2511 99.771 59.058 98.9495 59.2522ZM86.5006 67.3183C86.0764 68.316 84.9559 69.3808 83.5639 68.7189C82.1898 68.0557 80.0011 63.576 80.0011 63.576C80.0011 63.576 79.1702 61.9056 79.0104 61.9486C79.0104 61.9486 78.8308 61.6224 78.7208 63.4478C78.6063 65.2654 78.7428 68.8097 78.0177 69.3676C77.3309 69.927 76.4992 69.7043 76.0679 69.0508C75.6758 68.4069 75.5126 66.877 75.7265 64.1901C75.978 61.4979 76.6034 58.6336 77.4024 57.7417C78.2003 56.8558 78.8409 57.4989 79.0906 57.7322C79.0906 57.7322 80.1579 58.6996 81.918 61.5403L82.2286 62.0657C82.2286 62.0657 83.828 64.7495 83.9951 64.7432C83.9951 64.7432 84.1258 64.8666 84.2424 64.778C84.4103 64.73 84.3425 63.8694 84.3425 63.8694C84.3425 63.8694 84.0107 60.9447 82.5515 55.9942C82.5515 55.9942 82.3309 55.3769 82.4801 54.7985C82.6283 54.2139 83.2142 54.4883 83.2142 54.4883C83.2142 54.4883 85.4757 55.6254 86.5735 59.3075C87.664 62.9906 86.9312 66.313 86.5006 67.3183ZM110.84 65.113C109.811 66.9092 106.905 70.6703 103.042 69.7823C101.767 72.8753 100.695 76.0042 100.083 80.686C100.083 80.686 99.9479 81.5958 99.1918 81.2798C98.4425 81.0175 97.2082 79.7717 96.9585 78.0482C96.6899 75.7842 97.6978 71.9571 99.7578 67.5686C99.157 66.5919 98.7473 65.1965 99.098 63.2094C99.098 63.2094 99.6154 59.5195 103.321 56.1938C103.321 56.1938 103.765 55.8102 104.023 55.9283C104.307 56.0473 104.175 57.248 103.95 57.8318C103.716 58.4123 102.066 61.2684 102.066 61.2684C102.066 61.2684 101.037 63.198 101.327 64.7199C103.271 61.7318 107.689 55.7062 110.427 57.6063C111.347 58.2645 111.771 59.6961 111.771 61.2387C111.771 62.5936 111.445 64.0337 110.84 65.113ZM110.041 60.3807C110.041 60.3807 109.889 59.1927 108.727 60.5015C107.728 61.6059 105.926 63.6752 104.476 66.4859C105.998 66.315 107.466 65.4893 107.91 65.0687C108.631 64.4285 110.312 62.6913 110.041 60.3807ZM132.117 60.1102H125.039C124.898 57.7043 124.607 55.3607 124.151 52.9471C124.128 52.8263 124.064 52.717 123.97 52.6383C123.875 52.5597 123.756 52.5164 123.633 52.5162H122.001C121.931 52.5163 121.861 52.5321 121.798 52.5624C121.734 52.5927 121.678 52.6367 121.633 52.6913C121.588 52.7461 121.555 52.8102 121.538 52.8791C121.52 52.9479 121.518 53.0198 121.532 53.0895C121.995 55.4251 122.289 57.7239 122.434 60.1125H115.624C115.307 60.1125 115.049 60.3695 115.049 60.6855V62.1573C115.049 62.3098 115.11 62.4561 115.217 62.5639C115.325 62.6718 115.471 62.7326 115.624 62.7329H122.531C122.536 63.0961 122.539 63.4214 122.539 63.7266C122.539 65.8478 122.448 67.5952 122.234 69.5671C122.226 69.6421 122.234 69.7181 122.257 69.7899C122.281 69.8616 122.319 69.9275 122.37 69.9831C122.42 70.0387 122.481 70.0832 122.549 70.1137C122.617 70.1442 122.69 70.16 122.765 70.1601H124.278C124.42 70.1603 124.557 70.1075 124.663 70.012C124.768 69.9166 124.834 69.7852 124.848 69.6437C125.055 67.6584 125.143 65.8893 125.143 63.7265C125.143 63.4224 125.14 63.096 125.136 62.7328H132.117C132.434 62.7328 132.692 62.474 132.692 62.1572V60.6854C132.692 60.5329 132.631 60.3868 132.524 60.279C132.416 60.1712 132.27 60.1105 132.117 60.1102Z" fill="#926247"/>
<path id="Vector_2" d="M37.467 40.3871C37.4176 40.4602 37.3858 40.5437 37.3742 40.6312C37.3626 40.7186 37.3714 40.8075 37.4 40.8909C37.4288 40.9744 37.4761 41.0503 37.5384 41.1128C37.6007 41.1753 37.6764 41.2229 37.7598 41.2519L39.0287 41.679C39.1023 41.7027 39.1791 41.715 39.2565 41.7156C39.3723 41.7158 39.4865 41.6874 39.5888 41.633C39.6911 41.5786 39.7784 41.4998 39.8431 41.4037C43.9994 35.2977 49.6247 30.2137 56.1116 26.7014C62.8085 23.0749 70.396 21.1566 78.0563 21.1566C87.3087 21.1566 96.236 23.8859 103.874 29.0489C111.326 34.085 117.114 41.1112 120.611 49.3682C120.662 49.4888 120.747 49.5917 120.857 49.664C120.966 49.7363 121.094 49.7748 121.224 49.7747H122.74C122.826 49.7744 122.912 49.7529 122.988 49.7121C123.064 49.6714 123.129 49.6125 123.177 49.5408C123.226 49.4691 123.256 49.3864 123.265 49.3002C123.274 49.2139 123.262 49.1268 123.229 49.0465C119.623 40.1685 113.524 32.6003 105.591 27.1631C97.469 21.5966 87.9477 18.6537 78.0563 18.6537C61.7039 18.6537 46.5298 26.7786 37.467 40.3871Z" fill="#926247"/>
</g>
</g>
</svg>
