<svg width="150" height="100" viewBox="0 0 150 100" fill="none" xmlns="http://www.w3.org/2000/svg">
<g id="Company Logo">
<path id="Vector" fill-rule="evenodd" clip-rule="evenodd" d="M88.89 59.8067C82.1849 64.7489 72.4661 67.3858 64.0984 67.3858C52.3656 67.3858 41.803 63.0462 33.8119 55.8288C33.1843 55.2611 33.7468 54.4877 34.5001 54.9297C43.1239 59.9473 53.787 62.9659 64.8016 62.9659C72.2301 62.9659 80.4018 61.429 87.9157 58.2396C89.0507 57.7574 90 58.9829 88.89 59.8067Z" fill="#926247"/>
<path id="Vector_2" fill-rule="evenodd" clip-rule="evenodd" d="M91.6776 56.6174C90.8238 55.5224 86.012 56.1 83.8522 56.3561C83.1943 56.4365 83.0939 55.8639 83.6866 55.4521C87.5188 52.755 93.8072 53.5335 94.5404 54.4375C95.2737 55.3466 94.3496 61.65 90.7483 64.6585C90.1959 65.1206 89.6684 64.8745 89.9146 64.2617C90.7233 62.2427 92.5364 57.7173 91.6776 56.6174Z" fill="#926247"/>
<path id="Vector_3" fill-rule="evenodd" clip-rule="evenodd" d="M84.003 36.4112V33.7894C84.003 33.3926 84.3044 33.1264 84.666 33.1264H96.4039C96.7806 33.1264 97.082 33.3976 97.082 33.7894V36.0345C97.0769 36.4112 96.7606 36.9034 96.1981 37.6819L90.1157 46.366C92.3758 46.3109 94.7615 46.6473 96.8107 47.8026C97.2729 48.0637 97.3984 48.4455 97.4336 48.8221V51.6197C97.4336 52.0014 97.0116 52.4484 96.5697 52.2174C92.9584 50.3239 88.1619 50.118 84.1689 52.2375C83.762 52.4586 83.3351 52.0165 83.3351 51.6348V48.9779C83.3351 48.5509 83.34 47.8226 83.767 47.1748L90.8137 37.0693H84.681C84.3044 37.0693 84.003 36.8031 84.003 36.4112ZM41.1853 52.7699H37.6142C37.2726 52.7448 37.0015 52.4887 36.9763 52.1621V33.8347C36.9763 33.468 37.2827 33.1766 37.6644 33.1766H40.9944C41.341 33.1916 41.6172 33.4579 41.6424 33.7893V36.1853H41.7077C42.5765 33.8699 44.2089 32.7901 46.4088 32.7901C48.6438 32.7901 50.0402 33.8699 51.0447 36.1853C51.9086 33.8699 53.8724 32.7901 55.9769 32.7901C57.4736 32.7901 59.111 33.4079 60.1105 34.7941C61.2405 36.336 61.0095 38.5761 61.0095 40.5399L61.0045 52.107C61.0045 52.4737 60.6981 52.77 60.3164 52.77H56.7504C56.3938 52.7449 56.1074 52.4587 56.1074 52.107V42.3932C56.1074 41.6197 56.1778 39.6909 56.007 38.9578C55.7409 37.7272 54.9423 37.3806 53.9075 37.3806C53.0436 37.3806 52.1396 37.9582 51.7729 38.8824C51.4063 39.8066 51.4415 41.3535 51.4415 42.3932V52.1069C51.4415 52.4736 51.135 52.7699 50.7534 52.7699H47.1873C46.8257 52.7448 46.5444 52.4586 46.5444 52.1069L46.5394 42.3932C46.5394 40.3489 46.8759 37.3405 44.3395 37.3405C41.773 37.3405 41.8734 40.2736 41.8734 42.3932V52.1069C41.8734 52.4736 41.567 52.7699 41.1853 52.7699ZM107.188 32.79C112.486 32.79 115.354 37.3404 115.354 43.1265C115.354 48.7166 112.185 53.1517 107.187 53.1517C101.984 53.1517 99.1513 48.6011 99.1513 42.9306C99.1513 37.2249 102.019 32.79 107.188 32.79ZM107.218 36.5318C104.586 36.5318 104.42 40.1179 104.42 42.3529C104.42 44.5931 104.385 49.3746 107.188 49.3746C109.955 49.3746 110.086 45.5173 110.086 43.1666C110.086 41.6197 110.02 39.7713 109.553 38.3048C109.151 37.029 108.353 36.5318 107.218 36.5318ZM122.225 52.7699H118.669C118.313 52.7448 118.026 52.4586 118.026 52.1069L118.021 33.7743C118.051 33.4379 118.348 33.1766 118.709 33.1766H122.019C122.331 33.1916 122.587 33.4028 122.657 33.6889V36.4916H122.722C123.722 33.9854 125.123 32.79 127.589 32.79C129.192 32.79 130.754 33.3675 131.758 34.9496C132.692 36.4162 132.692 38.8824 132.692 40.6554V52.1923C132.652 52.5137 132.356 52.7699 132.004 52.7699H128.423C128.097 52.7448 127.825 52.5037 127.79 52.1923V42.2374C127.79 40.2334 128.021 37.3001 125.555 37.3001C124.686 37.3001 123.888 37.8828 123.491 38.7668C122.989 39.8869 122.923 41.0019 122.923 42.2376V52.1069C122.918 52.4736 122.607 52.7699 122.225 52.7699ZM74.6459 44.0155C74.6459 45.4067 74.6811 46.567 73.9779 47.8024C73.4104 48.8071 72.5064 49.4248 71.5068 49.4248C70.1357 49.4248 69.332 48.3802 69.332 46.8382C69.332 43.7944 72.0594 43.242 74.6459 43.242V44.0155ZM78.2471 52.7197C78.0111 52.9306 77.6696 52.9457 77.4034 52.8051C76.218 51.8206 76.002 51.3636 75.3542 50.4243C73.3953 52.4234 72.0041 53.0211 69.4676 53.0211C66.459 53.0211 64.1235 51.1676 64.1235 47.4561C64.1235 44.5579 65.6906 42.5841 67.9307 41.6197C69.8695 40.7658 72.5766 40.6151 74.646 40.3791V39.9171C74.646 39.0682 74.7112 38.0636 74.209 37.3304C73.7771 36.6724 72.9432 36.4012 72.205 36.4012C70.8438 36.4012 69.6334 37.0993 69.3371 38.5458C69.2767 38.8673 69.0407 39.1837 68.7142 39.1988L65.2536 38.8271C64.9624 38.7618 64.6359 38.5258 64.7212 38.0788C65.5149 33.8799 69.3119 32.6141 72.7074 32.6141C74.4452 32.6141 76.7154 33.0763 78.0866 34.3922C79.8243 36.0145 79.6586 38.1791 79.6586 40.5348V46.0998C79.6586 47.7724 80.3518 48.5056 81.0047 49.4097C81.2308 49.7312 81.2809 50.118 80.9897 50.359C80.2614 50.9668 78.9655 52.0968 78.2523 52.7297L78.2473 52.7197M27.8301 44.0155C27.8301 45.4067 27.8653 46.567 27.162 47.8024C26.5946 48.8071 25.6955 49.4248 24.691 49.4248C23.3199 49.4248 22.5212 48.3802 22.5212 46.8382C22.5212 43.7944 25.2485 43.242 27.8301 43.242V44.0155ZM31.4313 52.7197C31.1953 52.9306 30.8538 52.9457 30.5876 52.8051C29.4022 51.8206 29.1912 51.3636 28.5384 50.4243C26.5795 52.4234 25.1934 53.0211 22.6518 53.0211C19.6483 53.0211 17.3077 51.1676 17.3077 47.4561C17.3077 44.5579 18.8799 42.5841 21.1149 41.6197C23.0537 40.7658 25.7608 40.6151 27.8301 40.3791V39.9171C27.8301 39.0682 27.8954 38.0636 27.3981 37.3304C26.9612 36.6724 26.1275 36.4012 25.3941 36.4012C24.033 36.4012 22.8176 37.0993 22.5212 38.5458C22.4609 38.8673 22.2249 39.1837 21.9034 39.1988L18.4378 38.8271C18.1465 38.7618 17.8251 38.5258 17.9054 38.0788C18.704 33.8799 22.4961 32.6141 25.8914 32.6141C27.6291 32.6141 29.8994 33.0763 31.2707 34.3922C33.0084 36.0145 32.8427 38.1791 32.8427 40.5348V46.0998C32.8427 47.7724 33.5358 48.5056 34.1887 49.4097C34.4199 49.7312 34.47 50.118 34.1787 50.359C33.4504 50.9668 32.1546 52.0968 31.4414 52.7297L31.4313 52.7197Z" fill="#926247"/>
</g>
</svg>
