<svg width="150" height="100" viewBox="0 0 150 100" fill="none" xmlns="http://www.w3.org/2000/svg">
<g id="Company Logo">
<path id="Vector" d="M21.0882 53.7074C21.0882 55.0438 21.3815 56.0699 21.7649 56.6906C22.2676 57.5037 23.0173 57.8481 23.7817 57.8481C24.7676 57.8481 25.6695 57.6035 27.4075 55.1996C28.7999 53.2729 30.4407 50.5684 31.5446 48.8729L33.4141 46.0005C34.7128 44.0056 36.216 41.788 37.9394 40.2848C39.3464 39.0579 40.8642 38.3763 42.3917 38.3763C44.9562 38.3763 47.399 39.8625 49.2685 42.6497C51.3146 45.7023 52.3077 49.5472 52.3077 53.5151C52.3077 55.8739 51.8428 57.6071 51.0517 58.9764C50.2873 60.3006 48.7975 61.6237 46.2914 61.6237V57.8481C48.4372 57.8481 48.9728 55.8763 48.9728 53.6198C48.9728 50.4041 48.223 46.8354 46.5714 44.2855C45.3993 42.4769 43.8803 41.3717 42.2092 41.3717C40.4017 41.3717 38.9472 42.7349 37.3126 45.1655C36.4436 46.4569 35.5514 48.0307 34.5497 49.8065L33.447 51.76C31.2318 55.6877 30.6707 56.5823 29.5631 58.0587C27.6218 60.6439 25.964 61.6237 23.7817 61.6237C21.1928 61.6237 19.5558 60.5027 18.5419 58.8133C17.7143 57.4367 17.3077 55.6305 17.3077 53.5723L21.0882 53.7074Z" fill="#926247"/>
<path id="Vector_2" d="M20.2885 42.9163C22.0217 40.2446 24.5229 38.3763 27.3917 38.3763C29.0531 38.3763 30.7047 38.8681 32.4294 40.2763C34.316 41.816 36.3267 44.3513 38.8352 48.5297L39.7347 50.0292C41.906 53.6465 43.1414 55.5076 43.8644 56.3851C44.7943 57.5122 45.4455 57.8481 46.2914 57.8481C48.4372 57.8481 48.9727 55.8763 48.9727 53.6198L52.3077 53.5151C52.3077 55.8739 51.8427 57.6071 51.0516 58.9764C50.2872 60.3006 48.7975 61.6237 46.2914 61.6237C44.7334 61.6237 43.3532 61.2853 41.8269 59.8454C40.6536 58.7403 39.2819 56.777 38.2266 55.0122L35.0876 49.7687C33.5126 47.1373 32.0679 45.1753 31.2317 44.2868C30.3323 43.3313 29.176 42.1775 27.3308 42.1775C25.8374 42.1775 24.5691 43.2254 23.5078 44.8284L20.2885 42.9163Z" fill="#926247"/>
<path id="Vector_3" d="M27.3309 42.1775C25.8374 42.1775 24.5692 43.2254 23.5078 44.8284C22.0071 47.0935 21.0882 50.4674 21.0882 53.7074C21.0882 55.0438 21.3815 56.0699 21.7649 56.6906L18.5419 58.8133C17.7143 57.4367 17.3077 55.6305 17.3077 53.5723C17.3077 49.8296 18.335 45.9287 20.2885 42.9163C22.0217 40.2446 24.5229 38.3763 27.3917 38.3763L27.3309 42.1775Z" fill="#926247"/>
<path id="Vector_4" d="M59.6567 39.1115H64.0299L71.4654 52.5633L78.9021 39.1115H83.1804V61.2147H79.6129V44.2745L73.0915 56.0053H69.7444L63.2242 44.2745V61.2147H59.6567V39.1115ZM94.3585 47.3527C91.8001 47.3527 90.2592 49.2782 89.8904 51.6626H98.5735C98.3946 49.2064 96.9778 47.3527 94.3585 47.3527ZM86.3534 53.0209C86.3534 48.0039 89.5959 44.3524 94.4206 44.3524C99.1662 44.3524 102 47.9576 102 53.2887V54.2685H89.8904C90.3201 56.8622 92.0411 58.61 94.8162 58.61C97.0302 58.61 98.414 57.9345 99.7261 56.6991L101.621 59.0202C99.8357 60.6621 97.5645 61.609 94.6896 61.609C89.4669 61.609 86.3534 57.8006 86.3534 53.0209ZM106.325 47.6691H103.042V44.748H106.325V39.9172H109.767V44.748H114.757V47.6691H109.767V55.073C109.767 57.601 110.576 58.4992 112.562 58.4992C113.469 58.4992 113.989 58.4213 114.757 58.2935V61.183C113.8 61.4532 112.887 61.5774 111.899 61.5774C108.183 61.5774 106.325 59.5472 106.325 55.4832V47.6691ZM129.25 50.5099C128.559 48.7646 127.017 47.4793 124.75 47.4793C121.805 47.4793 119.92 49.5691 119.92 52.9734C119.92 56.2926 121.655 58.4834 124.609 58.4834C126.932 58.4834 128.589 57.1324 129.25 55.4515V50.5099ZM132.692 61.2147H129.313V58.9094C128.369 60.2665 126.65 61.609 123.867 61.609C119.39 61.609 116.398 57.8615 116.398 52.9734C116.398 48.0392 119.462 44.3524 124.057 44.3524C126.328 44.3524 128.11 45.2604 129.313 46.8634V44.748H132.692V61.2147Z" fill="#926247"/>
</g>
</svg>
