<svg width="150" height="100" viewBox="0 0 150 100" fill="none" xmlns="http://www.w3.org/2000/svg">
<g id="Company Logo">
<path id="Vector" d="M27.7577 51.5965H20.0363V49.6807H29.9928C29.7315 48.8679 28.8897 48.1132 27.4093 48.1132H20.1815C18.5269 48.1132 17.569 48.7228 17.569 50.0581V51.4804C17.569 52.6415 18.5559 53.3092 20.0073 53.3092H27.8157V55.3411H17.3077C17.569 56.4441 18.4108 57.0247 19.9202 57.0247H27.7867C29.4413 57.0247 30.254 56.3861 30.254 55.0218V53.5994C30.254 52.3512 29.2961 51.6836 27.7577 51.5965ZM43.5196 48.1423H33.9986V57.0537H36.6982V53.6285H43.7228C45.6677 53.6285 46.7417 52.9608 46.7417 51.3933V50.4064C46.7127 48.955 45.4935 48.1423 43.5196 48.1423ZM44.3905 50.987C44.3905 51.6256 44.2744 51.9739 43.2294 51.9739H36.6982L36.7272 49.6517H43.1133C44.2744 49.6517 44.4195 50 44.4195 50.6096V50.987H44.3905ZM55.7112 53.5704H49.9638L48.5414 55.0798H56.8433L58.2656 57.0537H61.4587L54.5791 47.7649L52.9536 49.7678L55.7112 53.5704ZM66.6256 49.6807H76.7272C76.4659 48.6357 75.45 48.1132 73.9986 48.1132H66.4514C65.1452 48.1132 63.897 48.6357 63.897 50.0581V55.0508C63.897 56.4732 65.1452 56.9957 66.4514 56.9957H74.0857C75.8273 56.9957 76.4369 56.5022 76.7272 55.3121H66.6256V49.6807ZM88.5704 52.6415V51.1321H80.4137V57.0537H92.4601V55.3701H83.1423V52.6415H88.5704ZM80.704 48.1423H92.8665V49.7097H80.704V48.1423ZM100.356 48.1423H96.1176L101.11 51.7997C101.836 51.3063 102.678 50.7838 103.433 50.3483L100.356 48.1423ZM106.509 52.6996C105.784 53.193 105.058 53.7446 104.361 54.2671L108.135 57.0247H112.402L106.509 52.6996Z" fill="#926247"/>
<path id="Vector_2" d="M132.692 42.9463C109.47 44.2816 98.73 54.209 96.3207 56.5602L95.8273 57.0247H100.123C111.734 45.3846 128.425 43.3236 132.692 42.9463Z" fill="#926247"/>
</g>
</svg>
