<svg width="137" height="100" viewBox="0 0 137 100" fill="none" xmlns="http://www.w3.org/2000/svg">
<g id="Company Logo">
<g id="g7433">
<path id="Subtract" fill-rule="evenodd" clip-rule="evenodd" d="M50.0757 37.9164C51.6505 38.3404 52.8922 39.5821 53.3162 41.1569C54.1036 44.0339 54.0733 50.0303 54.0733 50.0303C54.0733 50.0303 54.0733 55.9964 53.3162 58.8734C52.8922 60.4482 51.6505 61.6899 50.0757 62.1139C47.1987 62.871 35.6905 62.871 35.6905 62.871C35.6905 62.871 24.2126 62.871 21.3053 62.0836C19.7305 61.6596 18.4888 60.4179 18.0648 58.8431C17.3077 55.9964 17.3077 50 17.3077 50C17.3077 50 17.3077 44.0339 18.0648 41.1569C18.4888 39.5821 19.7607 38.3101 21.3053 37.8861C24.1823 37.129 35.6905 37.129 35.6905 37.129C35.6905 37.129 47.1987 37.129 50.0757 37.9164ZM41.596 50L32.026 55.5118V44.4882L41.596 50Z" fill="#926247"/>
</g>
<g id="g7451">
<g id="g7449">
<path id="path7435" d="M70.6996 60.5694C69.9728 60.0848 69.4579 59.3277 69.1551 58.2678C68.8522 57.2381 68.7008 55.845 68.7008 54.149V51.8171C68.7008 50.0909 68.8825 48.6978 69.2156 47.6378C69.5791 46.5779 70.1242 45.8208 70.851 45.3362C71.6081 44.8517 72.5772 44.6094 73.7886 44.6094C74.9697 44.6094 75.9388 44.8517 76.6657 45.3362C77.3925 45.8208 77.9073 46.6082 78.2405 47.6378C78.5736 48.6675 78.7553 50.0606 78.7553 51.8171V54.149C78.7553 55.8753 78.6039 57.2381 78.2708 58.298C77.9376 59.3277 77.4228 60.1151 76.696 60.5997C75.9691 61.0842 74.9697 61.3265 73.7281 61.3265C72.4561 61.2962 71.4264 61.054 70.6996 60.5694ZM74.788 58.0255C75 57.5106 75.0909 56.6324 75.0909 55.4513V50.424C75.0909 49.2732 75 48.4252 74.788 47.8801C74.576 47.335 74.2429 47.0927 73.7281 47.0927C73.2435 47.0927 72.8801 47.3653 72.6984 47.8801C72.4864 48.4252 72.3955 49.2732 72.3955 50.424V55.4513C72.3955 56.6324 72.4864 57.5106 72.6984 58.0255C72.8801 58.5403 73.2435 58.8129 73.7583 58.8129C74.2429 58.8129 74.576 58.5706 74.788 58.0255Z" fill="#926247"/>
<path id="path7437" d="M126.605 54.1794V54.997C126.605 56.0267 126.635 56.8141 126.696 57.329C126.756 57.8438 126.878 58.2375 127.09 58.4495C127.271 58.6918 127.574 58.8129 127.998 58.8129C128.543 58.8129 128.907 58.6009 129.119 58.1769C129.331 57.7529 129.422 57.0564 129.452 56.057L132.571 56.2387C132.601 56.3901 132.601 56.5718 132.601 56.8141C132.601 58.2981 132.208 59.4186 131.39 60.1454C130.572 60.8723 129.422 61.2357 127.938 61.2357C126.151 61.2357 124.909 60.6603 124.182 59.5397C123.455 58.4192 123.092 56.693 123.092 54.3308V51.5143C123.092 49.0915 123.455 47.335 124.213 46.2145C124.97 45.094 126.242 44.5488 128.028 44.5488C129.27 44.5488 130.239 44.7911 130.905 45.2454C131.572 45.6996 132.026 46.4265 132.299 47.3653C132.571 48.3344 132.692 49.6669 132.692 51.3629V54.1188H126.605V54.1794ZM127.059 47.3956C126.878 47.6379 126.756 48.0013 126.696 48.5161C126.635 49.031 126.605 49.8184 126.605 50.8783V52.0291H129.27V50.8783C129.27 49.8486 129.24 49.0612 129.179 48.5161C129.119 47.971 128.967 47.6076 128.786 47.3956C128.604 47.1836 128.301 47.0625 127.938 47.0625C127.514 47.0322 127.241 47.1533 127.059 47.3956Z" fill="#926247"/>
<path id="path7439" d="M61.8564 53.8765L57.7377 38.9462H61.3416L62.7953 45.6996C63.1587 47.3653 63.4312 48.7887 63.613 49.9698H63.7038C63.825 49.1218 64.0975 47.7287 64.5215 45.7299L66.0357 38.9462H69.6396L65.4603 53.8765V61.0237H61.8867V53.8765H61.8564Z" fill="#926247"/>
<path id="path7441" d="M90.4755 44.9121V61.0538H87.6287L87.3258 59.0853H87.235C86.4779 60.5693 85.2968 61.3264 83.7523 61.3264C82.6923 61.3264 81.9049 60.963 81.3901 60.2664C80.8752 59.5699 80.6329 58.4796 80.6329 56.9654V44.9121H84.2671V56.7534C84.2671 57.4803 84.3579 57.9951 84.5094 58.2979C84.6608 58.6008 84.9334 58.7522 85.2968 58.7522C85.5996 58.7522 85.9025 58.6614 86.2053 58.4494C86.5082 58.2677 86.7202 58.0254 86.8413 57.7225V44.9121H90.4755Z" fill="#926247"/>
<path id="path7443" d="M109.101 44.9121V61.0538H106.254L105.951 59.0853H105.86C105.103 60.5693 103.922 61.3264 102.377 61.3264C101.317 61.3264 100.53 60.963 100.015 60.2664C99.5003 59.5699 99.2581 58.4796 99.2581 56.9654V44.9121H102.892V56.7534C102.892 57.4803 102.983 57.9951 103.134 58.2979C103.286 58.6008 103.558 58.7522 103.922 58.7522C104.225 58.7522 104.528 58.6614 104.83 58.4494C105.133 58.2677 105.345 58.0254 105.466 57.7225V44.9121H109.101Z" fill="#926247"/>
<path id="path7445" d="M100.348 41.8838H96.7444V61.0237H93.2011V41.8838H89.5972V38.9462H100.348V41.8838Z" fill="#926247"/>
<path id="path7447" d="M121.124 47.4864C120.912 46.4567 120.548 45.7299 120.064 45.2756C119.579 44.8213 118.883 44.5791 118.035 44.5791C117.368 44.5791 116.732 44.7608 116.157 45.1545C115.581 45.5179 115.127 46.0327 114.824 46.6384H114.794V38.1284H111.281V61.0236H114.279L114.643 59.5094H114.734C115.006 60.0545 115.43 60.4785 116.005 60.8116C116.581 61.1145 117.187 61.2962 117.883 61.2962C119.125 61.2962 120.003 60.7208 120.578 59.6003C121.154 58.4797 121.457 56.6929 121.457 54.3004V51.7565C121.426 49.9092 121.336 48.4858 121.124 47.4864ZM117.792 54.0582C117.792 55.2393 117.732 56.1478 117.641 56.8141C117.55 57.4803 117.368 57.9649 117.156 58.2374C116.914 58.51 116.611 58.6614 116.248 58.6614C115.945 58.6614 115.672 58.6009 115.43 58.4494C115.188 58.298 114.976 58.086 114.824 57.8135V48.6675C114.946 48.2435 115.158 47.8801 115.46 47.5772C115.763 47.3047 116.096 47.1533 116.429 47.1533C116.793 47.1533 117.096 47.3047 117.277 47.5772C117.489 47.8801 117.611 48.3646 117.701 49.0309C117.792 49.7274 117.823 50.6966 117.823 51.9382V54.0582H117.792Z" fill="#926247"/>
</g>
</g>
</g>
</svg>
