<svg width="137" height="100" viewBox="0 0 137 100" fill="none" xmlns="http://www.w3.org/2000/svg">
<g id="Company Logo">
<path id="Vector" d="M11.6172 60.8219H7.26942V49.9834H4.30762V46.4546H7.26931V43.9436C7.26931 40.968 8.57927 38.834 12.9153 38.834C13.8324 38.834 15.2722 39.0188 15.2722 39.0188V42.2955H13.7599C12.2191 42.2955 11.6175 42.7642 11.6175 44.06V46.4546H15.2145L14.8942 49.9834H11.6173L11.6172 60.8219ZM21.5934 46.1726C21.53 46.1726 21.4648 46.1749 21.4003 46.1765C17.3688 46.1765 15.5243 49.209 15.5243 53.5138C15.5243 58.9366 17.9169 61.107 21.4318 61.107C23.4429 61.107 24.7642 60.2606 25.5672 58.6809V60.8234H29.7026V46.4561H25.5672V48.6656C24.9115 47.244 23.5533 46.1894 21.5934 46.1726ZM22.6449 49.5675C24.3382 49.5675 25.3545 50.7486 25.3545 52.7576L25.3584 54.8094C25.3584 56.1635 24.519 57.7476 22.6449 57.7476C19.7637 57.7476 19.8407 54.6366 19.8407 53.6004C19.8407 50.115 21.3758 49.5675 22.6449 49.5675ZM31.3727 53.6405C31.3727 51.8946 31.2892 46.1819 38.7319 46.1819C41.7196 46.1819 42.9671 47.1319 42.9671 47.1319L41.9644 50.2418C41.9644 50.2418 40.7185 49.5558 39.095 49.5558C37.0157 49.5558 35.6889 50.7612 35.6889 52.8821L35.6912 54.4028C35.6912 56.4408 36.9714 57.8011 39.0993 57.8011C40.5783 57.8011 41.9415 57.1086 41.9415 57.1086L42.9416 60.1536C42.9416 60.1536 41.8009 61.1096 38.7528 61.1096C31.6661 61.1096 31.3728 55.9842 31.3728 53.6405H31.3727ZM67.2144 46.1765C71.246 46.1765 73.1197 49.209 73.1197 53.5138C73.1197 58.9366 70.7269 61.107 67.212 61.107C65.2009 61.107 63.7143 60.2607 62.9112 58.6809V60.8234L58.8279 60.8218V39.2708L63.1633 38.8927V48.4709C63.7891 46.7952 65.8453 46.1765 67.2144 46.1765ZM65.9989 49.5675C64.3057 49.5675 63.1633 50.7486 63.1633 52.7576L63.1593 54.8094C63.1568 56.1635 63.9504 57.7476 65.9989 57.7476C68.8801 57.7476 68.8031 54.6366 68.8031 53.6004C68.8031 50.115 67.2682 49.5675 65.9989 49.5675ZM50.4895 46.1884C45.9168 46.1884 43.5027 48.6815 43.5027 53.112V53.9352C43.5027 59.6856 46.8928 61.1661 50.9345 61.1661C54.863 61.1661 56.6412 60.0673 56.6412 60.0673L55.83 57.1411C55.83 57.1411 53.7383 58.0311 51.4543 58.0311C49.0867 58.0311 48.0684 57.4276 47.8074 55.1523H56.9879V52.8048C56.9879 47.9988 54.2785 46.1883 50.4894 46.1883L50.4895 46.1884ZM50.5997 49.1184C52.1825 49.1184 53.2082 50.0891 53.1519 52.3401H47.8153C47.9079 49.9709 49.014 49.1184 50.5997 49.1184ZM81.7644 46.1686C77.0686 46.1686 74.5965 48.8149 74.5965 53.5571C74.5965 60.0636 78.8578 61.1109 81.7722 61.1109C86.0387 61.1109 88.8772 58.814 88.8772 53.6161C88.8772 48.2061 85.6856 46.1686 81.7644 46.1686ZM81.7053 49.5793C83.7701 49.5793 84.5883 51.1246 84.5883 52.8837V54.396C84.5883 56.5269 83.4435 57.7595 81.6975 57.7595C80.0645 57.7595 78.9169 56.6066 78.9169 54.396V52.8837C78.9169 50.5261 80.2825 49.5793 81.7053 49.5793ZM97.5142 46.1686C92.8183 46.1686 90.3462 48.8149 90.3462 53.5571C90.3462 60.0636 94.6076 61.1109 97.522 61.1109C101.788 61.1109 104.627 58.814 104.627 53.6161C104.627 48.2061 101.435 46.1686 97.5142 46.1686ZM97.4551 49.5793C99.5199 49.5793 100.338 51.1246 100.338 52.8837V54.396C100.338 56.5269 99.1931 57.7595 97.4472 57.7595C95.8143 57.7595 94.6667 56.6066 94.6667 54.396V52.8837C94.6667 50.5261 96.0323 49.5793 97.4551 49.5793ZM106.265 60.8219V39.2708L110.613 38.8928V53.3377L114.927 46.4547H119.519L115.019 53.5835L119.692 60.8219H115.087L110.613 53.7934V60.8219H106.265Z" fill="#926247"/>
</g>
</svg>
