<svg width="207" height="64" viewBox="0 0 207 64" fill="none" xmlns="http://www.w3.org/2000/svg">
<rect width="207" height="64" rx="32" fill="#9BB068"/>
<path d="M22.912 38.234C22.036 38.234 21.22 38.063 20.464 37.721C19.714 37.379 19.06 36.908 18.502 36.308C17.944 35.702 17.506 35.006 17.188 34.22C16.876 33.428 16.72 32.582 16.72 31.682C16.72 30.734 16.888 29.864 17.224 29.072C17.566 28.28 18.031 27.593 18.619 27.011C19.207 26.429 19.873 25.979 20.617 25.661C21.367 25.343 22.147 25.184 22.957 25.184C23.863 25.184 24.742 25.397 25.594 25.823C26.452 26.243 27.208 26.894 27.862 27.776L25.9 28.829C25.498 28.337 25.036 27.971 24.514 27.731C23.998 27.485 23.47 27.362 22.93 27.362C22.402 27.362 21.895 27.47 21.409 27.686C20.929 27.902 20.5 28.208 20.122 28.604C19.75 28.994 19.456 29.456 19.24 29.99C19.024 30.518 18.916 31.097 18.916 31.727C18.916 32.321 19.021 32.882 19.231 33.41C19.441 33.932 19.729 34.391 20.095 34.787C20.467 35.177 20.896 35.483 21.382 35.705C21.868 35.927 22.39 36.038 22.948 36.038C23.32 36.038 23.683 35.981 24.037 35.867C24.397 35.747 24.733 35.576 25.045 35.354C25.363 35.132 25.645 34.862 25.891 34.544C26.143 34.226 26.353 33.866 26.521 33.464H24.226V31.547H29.104C29.128 32.465 28.984 33.326 28.672 34.13C28.36 34.934 27.919 35.645 27.349 36.263C26.779 36.881 26.116 37.364 25.36 37.712C24.604 38.06 23.788 38.234 22.912 38.234ZM34.2327 38.234C33.4047 38.234 32.6487 38.021 31.9647 37.595C31.2867 37.169 30.7437 36.599 30.3357 35.885C29.9337 35.165 29.7327 34.37 29.7327 33.5C29.7327 32.84 29.8497 32.225 30.0837 31.655C30.3177 31.079 30.6387 30.575 31.0467 30.143C31.4607 29.705 31.9407 29.363 32.4867 29.117C33.0327 28.871 33.6147 28.748 34.2327 28.748C35.0607 28.748 35.8137 28.961 36.4917 29.387C37.1757 29.813 37.7187 30.386 38.1207 31.106C38.5287 31.826 38.7327 32.624 38.7327 33.5C38.7327 34.154 38.6157 34.766 38.3817 35.336C38.1477 35.906 37.8237 36.41 37.4097 36.848C37.0017 37.28 36.5247 37.619 35.9787 37.865C35.4387 38.111 34.8567 38.234 34.2327 38.234ZM34.2327 36.038C34.6707 36.038 35.0637 35.921 35.4117 35.687C35.7597 35.453 36.0327 35.144 36.2307 34.76C36.4347 34.376 36.5367 33.956 36.5367 33.5C36.5367 33.032 36.4317 32.606 36.2217 32.222C36.0177 31.832 35.7387 31.523 35.3847 31.295C35.0367 31.061 34.6527 30.944 34.2327 30.944C33.8007 30.944 33.4107 31.061 33.0627 31.295C32.7147 31.529 32.4387 31.841 32.2347 32.231C32.0307 32.621 31.9287 33.044 31.9287 33.5C31.9287 33.974 32.0337 34.403 32.2437 34.787C32.4537 35.171 32.7327 35.477 33.0807 35.705C33.4347 35.927 33.8187 36.038 34.2327 36.038ZM43.7692 38.234C42.9412 38.234 42.1852 38.021 41.5012 37.595C40.8232 37.169 40.2802 36.599 39.8722 35.885C39.4702 35.165 39.2692 34.37 39.2692 33.5C39.2692 32.84 39.3862 32.225 39.6202 31.655C39.8542 31.079 40.1752 30.575 40.5832 30.143C40.9972 29.705 41.4772 29.363 42.0232 29.117C42.5692 28.871 43.1512 28.748 43.7692 28.748C44.5972 28.748 45.3502 28.961 46.0282 29.387C46.7122 29.813 47.2552 30.386 47.6572 31.106C48.0652 31.826 48.2692 32.624 48.2692 33.5C48.2692 34.154 48.1522 34.766 47.9182 35.336C47.6842 35.906 47.3602 36.41 46.9462 36.848C46.5382 37.28 46.0612 37.619 45.5152 37.865C44.9752 38.111 44.3932 38.234 43.7692 38.234ZM43.7692 36.038C44.2072 36.038 44.6002 35.921 44.9482 35.687C45.2962 35.453 45.5692 35.144 45.7672 34.76C45.9712 34.376 46.0732 33.956 46.0732 33.5C46.0732 33.032 45.9682 32.606 45.7582 32.222C45.5542 31.832 45.2752 31.523 44.9212 31.295C44.5732 31.061 44.1892 30.944 43.7692 30.944C43.3372 30.944 42.9472 31.061 42.5992 31.295C42.2512 31.529 41.9752 31.841 41.7712 32.231C41.5672 32.621 41.4652 33.044 41.4652 33.5C41.4652 33.974 41.5702 34.403 41.7802 34.787C41.9902 35.171 42.2692 35.477 42.6172 35.705C42.9712 35.927 43.3552 36.038 43.7692 36.038ZM56.0237 29H58.2197V38.171C58.2197 38.819 58.0877 39.407 57.8237 39.935C57.5597 40.469 57.1997 40.925 56.7437 41.303C56.2877 41.687 55.7657 41.981 55.1777 42.185C54.5897 42.395 53.9717 42.5 53.3237 42.5C52.6937 42.5 52.0877 42.371 51.5057 42.113C50.9237 41.855 50.4077 41.501 49.9577 41.051C49.5137 40.607 49.1747 40.1 48.9407 39.53L50.9477 38.621C51.0677 38.951 51.2477 39.239 51.4877 39.485C51.7337 39.737 52.0157 39.932 52.3337 40.07C52.6517 40.214 52.9817 40.286 53.3237 40.286C53.6717 40.286 54.0047 40.238 54.3227 40.142C54.6467 40.046 54.9377 39.905 55.1957 39.719C55.4537 39.539 55.6547 39.317 55.7987 39.053C55.9487 38.795 56.0237 38.501 56.0237 38.171V36.902C55.7417 37.298 55.3877 37.619 54.9617 37.865C54.5357 38.111 54.0437 38.234 53.4857 38.234C52.8377 38.234 52.2317 38.111 51.6677 37.865C51.1037 37.619 50.6057 37.28 50.1737 36.848C49.7477 36.41 49.4117 35.906 49.1657 35.336C48.9257 34.766 48.8057 34.154 48.8057 33.5C48.8057 32.846 48.9257 32.234 49.1657 31.664C49.4117 31.094 49.7477 30.593 50.1737 30.161C50.6057 29.723 51.1037 29.381 51.6677 29.135C52.2317 28.889 52.8377 28.766 53.4857 28.766C54.0437 28.766 54.5357 28.889 54.9617 29.135C55.3877 29.375 55.7417 29.693 56.0237 30.089V29ZM53.5127 36.119C53.9747 36.119 54.3827 36.002 54.7367 35.768C55.0967 35.528 55.3787 35.21 55.5827 34.814C55.7867 34.412 55.8887 33.974 55.8887 33.5C55.8887 33.02 55.7837 32.582 55.5737 32.186C55.3697 31.79 55.0877 31.472 54.7277 31.232C54.3737 30.992 53.9687 30.872 53.5127 30.872C53.0627 30.872 52.6517 30.992 52.2797 31.232C51.9077 31.466 51.6107 31.781 51.3887 32.177C51.1667 32.573 51.0557 33.014 51.0557 33.5C51.0557 33.986 51.1667 34.427 51.3887 34.823C51.6107 35.219 51.9077 35.534 52.2797 35.768C52.6517 36.002 53.0627 36.119 53.5127 36.119ZM60.0248 38V24.5H62.2208V38H60.0248ZM67.8435 38.234C67.0155 38.234 66.2595 38.021 65.5755 37.595C64.8975 37.169 64.3545 36.596 63.9465 35.876C63.5445 35.156 63.3435 34.361 63.3435 33.491C63.3435 32.837 63.4605 32.225 63.6945 31.655C63.9285 31.079 64.2495 30.575 64.6575 30.143C65.0715 29.705 65.5515 29.363 66.0975 29.117C66.6435 28.871 67.2255 28.748 67.8435 28.748C68.5455 28.748 69.1875 28.898 69.7695 29.198C70.3575 29.492 70.8555 29.897 71.2635 30.413C71.6715 30.929 71.9685 31.517 72.1545 32.177C72.3405 32.837 72.3825 33.527 72.2805 34.247H65.7015C65.7855 34.583 65.9235 34.886 66.1155 35.156C66.3075 35.42 66.5505 35.633 66.8445 35.795C67.1385 35.951 67.4715 36.032 67.8435 36.038C68.2275 36.044 68.5755 35.954 68.8875 35.768C69.2055 35.576 69.4695 35.318 69.6795 34.994L71.9205 35.516C71.5545 36.314 71.0085 36.968 70.2825 37.478C69.5565 37.982 68.7435 38.234 67.8435 38.234ZM65.6295 32.6H70.0575C69.9915 32.24 69.8505 31.916 69.6345 31.628C69.4245 31.334 69.1635 31.1 68.8515 30.926C68.5395 30.752 68.2035 30.665 67.8435 30.665C67.4835 30.665 67.1505 30.752 66.8445 30.926C66.5385 31.094 66.2775 31.325 66.0615 31.619C65.8515 31.907 65.7075 32.234 65.6295 32.6ZM82.096 38.234C81.4 38.234 80.731 38.126 80.089 37.91C79.453 37.688 78.895 37.373 78.415 36.965C77.935 36.551 77.59 36.056 77.38 35.48L79.441 34.724C79.525 34.964 79.696 35.183 79.954 35.381C80.212 35.579 80.527 35.738 80.899 35.858C81.271 35.978 81.67 36.038 82.096 36.038C82.534 36.038 82.942 35.972 83.32 35.84C83.704 35.702 84.013 35.513 84.247 35.273C84.481 35.027 84.598 34.742 84.598 34.418C84.598 34.088 84.475 33.818 84.229 33.608C83.983 33.392 83.668 33.221 83.284 33.095C82.9 32.969 82.504 32.873 82.096 32.807C81.202 32.669 80.401 32.456 79.693 32.168C78.985 31.88 78.424 31.481 78.01 30.971C77.602 30.461 77.398 29.801 77.398 28.991C77.398 28.229 77.617 27.563 78.055 26.993C78.493 26.423 79.069 25.979 79.783 25.661C80.497 25.343 81.268 25.184 82.096 25.184C82.786 25.184 83.452 25.292 84.094 25.508C84.736 25.724 85.297 26.039 85.777 26.453C86.263 26.867 86.611 27.365 86.821 27.947L84.751 28.694C84.667 28.454 84.496 28.235 84.238 28.037C83.98 27.839 83.665 27.683 83.293 27.569C82.921 27.449 82.522 27.389 82.096 27.389C81.67 27.383 81.265 27.452 80.881 27.596C80.503 27.734 80.194 27.923 79.954 28.163C79.714 28.403 79.594 28.679 79.594 28.991C79.594 29.393 79.705 29.696 79.927 29.9C80.155 30.104 80.458 30.254 80.836 30.35C81.214 30.44 81.634 30.524 82.096 30.602C82.936 30.734 83.713 30.956 84.427 31.268C85.141 31.58 85.714 31.997 86.146 32.519C86.578 33.035 86.794 33.668 86.794 34.418C86.794 35.18 86.578 35.849 86.146 36.425C85.714 36.995 85.141 37.439 84.427 37.757C83.713 38.075 82.936 38.234 82.096 38.234ZM93.0455 31.196H91.2995V38H89.1035V31.196H87.7715V29H89.1035V26.174H91.2995V29H93.0455V31.196ZM98.0617 38.234C97.2337 38.234 96.4777 38.021 95.7937 37.595C95.1157 37.169 94.5727 36.599 94.1647 35.885C93.7627 35.165 93.5617 34.37 93.5617 33.5C93.5617 32.84 93.6787 32.225 93.9127 31.655C94.1467 31.079 94.4677 30.575 94.8757 30.143C95.2897 29.705 95.7697 29.363 96.3157 29.117C96.8617 28.871 97.4437 28.748 98.0617 28.748C98.8897 28.748 99.6427 28.961 100.321 29.387C101.005 29.813 101.548 30.386 101.95 31.106C102.358 31.826 102.562 32.624 102.562 33.5C102.562 34.154 102.445 34.766 102.211 35.336C101.977 35.906 101.653 36.41 101.239 36.848C100.831 37.28 100.354 37.619 99.8077 37.865C99.2677 38.111 98.6857 38.234 98.0617 38.234ZM98.0617 36.038C98.4997 36.038 98.8927 35.921 99.2407 35.687C99.5887 35.453 99.8617 35.144 100.06 34.76C100.264 34.376 100.366 33.956 100.366 33.5C100.366 33.032 100.261 32.606 100.051 32.222C99.8467 31.832 99.5677 31.523 99.2137 31.295C98.8657 31.061 98.4817 30.944 98.0617 30.944C97.6297 30.944 97.2397 31.061 96.8917 31.295C96.5437 31.529 96.2677 31.841 96.0637 32.231C95.8597 32.621 95.7577 33.044 95.7577 33.5C95.7577 33.974 95.8627 34.403 96.0727 34.787C96.2827 35.171 96.5617 35.477 96.9097 35.705C97.2637 35.927 97.6477 36.038 98.0617 36.038ZM103.612 38L103.603 29H105.799L105.808 29.801C106.114 29.477 106.48 29.222 106.906 29.036C107.332 28.844 107.791 28.748 108.283 28.748C108.613 28.748 108.943 28.796 109.273 28.892L108.409 31.106C108.181 31.016 107.953 30.971 107.725 30.971C107.371 30.971 107.047 31.058 106.753 31.232C106.465 31.4 106.234 31.631 106.06 31.925C105.892 32.213 105.808 32.534 105.808 32.888V38H103.612ZM113.461 38.234C112.633 38.234 111.877 38.021 111.193 37.595C110.515 37.169 109.972 36.596 109.564 35.876C109.162 35.156 108.961 34.361 108.961 33.491C108.961 32.837 109.078 32.225 109.312 31.655C109.546 31.079 109.867 30.575 110.275 30.143C110.689 29.705 111.169 29.363 111.715 29.117C112.261 28.871 112.843 28.748 113.461 28.748C114.163 28.748 114.805 28.898 115.387 29.198C115.975 29.492 116.473 29.897 116.881 30.413C117.289 30.929 117.586 31.517 117.772 32.177C117.958 32.837 118 33.527 117.898 34.247H111.319C111.403 34.583 111.541 34.886 111.733 35.156C111.925 35.42 112.168 35.633 112.462 35.795C112.756 35.951 113.089 36.032 113.461 36.038C113.845 36.044 114.193 35.954 114.505 35.768C114.823 35.576 115.087 35.318 115.297 34.994L117.538 35.516C117.172 36.314 116.626 36.968 115.9 37.478C115.174 37.982 114.361 38.234 113.461 38.234ZM111.247 32.6H115.675C115.609 32.24 115.468 31.916 115.252 31.628C115.042 31.334 114.781 31.1 114.469 30.926C114.157 30.752 113.821 30.665 113.461 30.665C113.101 30.665 112.768 30.752 112.462 30.926C112.156 31.094 111.895 31.325 111.679 31.619C111.469 31.907 111.325 32.234 111.247 32.6Z" fill="white"/>
<rect x="151" y="8" width="48" height="48" rx="24" fill="white"/>
<path d="M165 32L184 32" stroke="#9BB068" stroke-width="2" stroke-linejoin="round"/>
<path d="M179.553 37.7956C180.829 37.4537 181.956 36.7004 182.76 35.6526C183.564 34.6047 184 33.3208 184 32C184 30.6792 183.564 29.3953 182.76 28.3474C181.956 27.2996 180.829 26.5463 179.553 26.2044" stroke="#9BB068" stroke-width="2" stroke-linejoin="round"/>
</svg>
