<svg width="96" height="96" viewBox="0 0 96 96" fill="none" xmlns="http://www.w3.org/2000/svg">
<g clip-path="url(#clip0_1538_144)">
<rect width="96" height="96" rx="48" fill="#E5EAD7"/>
<path d="M58 22C48.0589 12.0589 31.9411 12.0589 22 22C12.0589 31.9411 12.0589 48.0589 22 58L64 100L106 58C115.941 48.0589 115.941 31.9411 106 22C96.0589 12.0589 79.9411 12.0589 70 22L64 28L58 22Z" fill="#9BB068"/>
<path fill-rule="evenodd" clip-rule="evenodd" d="M44 36.9443L40 44.9443C36.6122 51.72 29.6869 56 22.1115 56H-4V48H22.1115C26.6567 48 30.8119 45.432 32.8446 41.3666L39.739 27.5777C40.8353 25.3851 43.0764 24 45.5279 24C49.1023 24 52 26.8977 52 30.4721V67.0557L56 59.0557C59.3878 52.28 66.3131 48 73.8885 48H108V56H73.8885C69.3433 56 65.1881 58.568 63.1554 62.6334L56.261 76.4223C55.1647 78.6149 52.9236 80 50.4721 80C46.8977 80 44 77.1023 44 73.5279V36.9443Z" fill="#4B3425"/>
</g>
<defs>
<clipPath id="clip0_1538_144">
<rect width="96" height="96" rx="48" fill="white"/>
</clipPath>
</defs>
</svg>
