<svg width="96" height="96" viewBox="0 0 96 96" fill="none" xmlns="http://www.w3.org/2000/svg">
<g clip-path="url(#clip0_1538_497)">
<rect width="96" height="96" rx="48" fill="#E5EAD7"/>
<rect x="31.0718" y="9.6077" width="16" height="24" transform="rotate(30 31.0718 9.6077)" fill="#9BB068"/>
<path fill-rule="evenodd" clip-rule="evenodd" d="M64.8981 20.8255C59.8261 17.6716 53.9726 16 47.9999 16V0C56.959 0 65.7392 2.50733 73.3472 7.2383C80.9552 11.9693 87.0874 18.735 91.0498 26.7701C95.0123 34.8052 96.6469 43.7889 95.7688 52.7048C94.8907 61.6207 91.5348 70.1129 86.0809 77.2206C80.627 84.3282 73.2927 89.7677 64.9079 92.9235C56.5231 96.0793 47.4225 96.8255 38.6356 95.0777C29.8487 93.3299 21.7264 89.1578 15.1875 83.0335C8.64863 76.9091 3.95426 69.077 1.6355 60.4233L17.0903 56.2822C18.6362 62.0514 21.7657 67.2728 26.125 71.3556C30.4842 75.4385 35.8991 78.2199 41.757 79.3851C47.615 80.5503 53.6821 80.0529 59.2719 77.949C64.8618 75.8451 69.7513 72.2188 73.3872 67.4804C77.0232 62.7419 79.2604 57.0805 79.8459 51.1366C80.4313 45.1926 79.3415 39.2035 76.6999 33.8468C74.0582 28.49 69.9701 23.9795 64.8981 20.8255Z" fill="#9BB068"/>
<rect x="42.1436" y="-24.7846" width="32" height="48" transform="rotate(30 42.1436 -24.7846)" fill="#4B3425"/>
<rect x="-4" y="52" width="40" height="16" fill="#4B3425"/>
</g>
<defs>
<clipPath id="clip0_1538_497">
<rect width="96" height="96" rx="48" fill="white"/>
</clipPath>
</defs>
</svg>
