<svg width="348" height="65" viewBox="0 0 348 65" fill="none" xmlns="http://www.w3.org/2000/svg">
<g clip-path="url(#clip0_1582_706)">
<rect x="0.5" y="0.353027" width="347" height="64" rx="32" fill="#6D4B36"/>
<rect x="19.5" y="25.353" width="18" height="14" rx="7" stroke="white" stroke-width="2" stroke-linejoin="round"/>
<path d="M34.5 26.353C34.5 27.141 34.3448 27.9212 34.0433 28.6491C33.7417 29.3771 33.2998 30.0385 32.7426 30.5957C32.1855 31.1528 31.5241 31.5948 30.7961 31.8963C30.0681 32.1978 29.2879 32.353 28.5 32.353C27.7121 32.353 26.9319 32.1978 26.2039 31.8963C25.4759 31.5948 24.8145 31.1528 24.2574 30.5957C23.7002 30.0385 23.2583 29.3771 22.9567 28.6491C22.6552 27.9212 22.5 27.141 22.5 26.353" stroke="#F7F4F2" stroke-width="2" stroke-linejoin="round"/>
<path d="M54.116 38.587C53.42 38.587 52.751 38.479 52.109 38.263C51.473 38.041 50.915 37.726 50.435 37.318C49.955 36.904 49.61 36.409 49.4 35.833L51.461 35.077C51.545 35.317 51.716 35.536 51.974 35.734C52.232 35.932 52.547 36.091 52.919 36.211C53.291 36.331 53.69 36.391 54.116 36.391C54.554 36.391 54.962 36.325 55.34 36.193C55.724 36.055 56.033 35.866 56.267 35.626C56.501 35.38 56.618 35.095 56.618 34.771C56.618 34.441 56.495 34.171 56.249 33.961C56.003 33.745 55.688 33.574 55.304 33.448C54.92 33.322 54.524 33.226 54.116 33.16C53.222 33.022 52.421 32.809 51.713 32.521C51.005 32.233 50.444 31.834 50.03 31.324C49.622 30.814 49.418 30.154 49.418 29.344C49.418 28.582 49.637 27.916 50.075 27.346C50.513 26.776 51.089 26.332 51.803 26.014C52.517 25.696 53.288 25.537 54.116 25.537C54.806 25.537 55.472 25.645 56.114 25.861C56.756 26.077 57.317 26.392 57.797 26.806C58.283 27.22 58.631 27.718 58.841 28.3L56.771 29.047C56.687 28.807 56.516 28.588 56.258 28.39C56 28.192 55.685 28.036 55.313 27.922C54.941 27.802 54.542 27.742 54.116 27.742C53.69 27.736 53.285 27.805 52.901 27.949C52.523 28.087 52.214 28.276 51.974 28.516C51.734 28.756 51.614 29.032 51.614 29.344C51.614 29.746 51.725 30.049 51.947 30.253C52.175 30.457 52.478 30.607 52.856 30.703C53.234 30.793 53.654 30.877 54.116 30.955C54.956 31.087 55.733 31.309 56.447 31.621C57.161 31.933 57.734 32.35 58.166 32.872C58.598 33.388 58.814 34.021 58.814 34.771C58.814 35.533 58.598 36.202 58.166 36.778C57.734 37.348 57.161 37.792 56.447 38.11C55.733 38.428 54.956 38.587 54.116 38.587ZM59.8815 35.023V29.353H62.0775V34.447C62.0775 34.801 62.1645 35.125 62.3385 35.419C62.5125 35.707 62.7435 35.938 63.0315 36.112C63.3255 36.28 63.6465 36.364 63.9945 36.364C64.3545 36.364 64.6785 36.28 64.9665 36.112C65.2545 35.938 65.4855 35.707 65.6595 35.419C65.8335 35.125 65.9205 34.801 65.9205 34.447V29.353H68.1165L68.1255 38.353H65.9295L65.9205 37.534C65.6085 37.858 65.2395 38.116 64.8135 38.308C64.3875 38.494 63.9315 38.587 63.4455 38.587C62.7915 38.587 62.1945 38.428 61.6545 38.11C61.1145 37.786 60.6825 37.357 60.3585 36.823C60.0405 36.283 59.8815 35.683 59.8815 35.023ZM74.4078 29.101C75.2838 29.101 76.0818 29.314 76.8018 29.74C77.5218 30.166 78.0948 30.739 78.5208 31.459C78.9468 32.173 79.1598 32.965 79.1598 33.835C79.1598 34.489 79.0368 35.104 78.7908 35.68C78.5448 36.256 78.2028 36.763 77.7648 37.201C77.3328 37.633 76.8288 37.972 76.2528 38.218C75.6828 38.464 75.0678 38.587 74.4078 38.587C73.8438 38.587 73.3428 38.461 72.9048 38.209C72.4728 37.951 72.1098 37.618 71.8158 37.21V38.353H69.6198V24.853H71.8158V30.478C72.1098 30.07 72.4728 29.74 72.9048 29.488C73.3428 29.23 73.8438 29.101 74.4078 29.101ZM74.3808 36.463C74.8488 36.463 75.2718 36.346 75.6498 36.112C76.0338 35.872 76.3398 35.554 76.5678 35.158C76.7958 34.762 76.9098 34.321 76.9098 33.835C76.9098 33.355 76.7958 32.917 76.5678 32.521C76.3398 32.119 76.0338 31.801 75.6498 31.567C75.2658 31.333 74.8428 31.216 74.3808 31.216C73.9248 31.216 73.5168 31.336 73.1568 31.576C72.7968 31.81 72.5148 32.128 72.3108 32.53C72.1068 32.926 72.0048 33.361 72.0048 33.835C72.0048 34.321 72.1068 34.765 72.3108 35.167C72.5148 35.563 72.7968 35.878 73.1568 36.112C73.5168 36.346 73.9248 36.463 74.3808 36.463ZM82.9363 38.515C82.4683 38.485 82.0153 38.392 81.5773 38.236C81.1453 38.074 80.7613 37.855 80.4253 37.579C80.0893 37.303 79.8313 36.973 79.6513 36.589L81.5053 35.797C81.5773 35.917 81.6943 36.046 81.8563 36.184C82.0183 36.316 82.2103 36.427 82.4323 36.517C82.6603 36.607 82.9093 36.652 83.1793 36.652C83.4073 36.652 83.6233 36.622 83.8273 36.562C84.0373 36.496 84.2053 36.397 84.3313 36.265C84.4633 36.133 84.5293 35.962 84.5293 35.752C84.5293 35.53 84.4513 35.359 84.2953 35.239C84.1453 35.113 83.9533 35.02 83.7193 34.96C83.4913 34.894 83.2693 34.834 83.0533 34.78C82.4833 34.666 81.9523 34.489 81.4603 34.249C80.9743 34.009 80.5813 33.7 80.2813 33.322C79.9873 32.938 79.8403 32.476 79.8403 31.936C79.8403 31.342 79.9963 30.829 80.3083 30.397C80.6263 29.965 81.0373 29.632 81.5413 29.398C82.0513 29.164 82.6003 29.047 83.1883 29.047C83.9023 29.047 84.5563 29.197 85.1503 29.497C85.7503 29.791 86.2243 30.208 86.5723 30.748L84.8353 31.774C84.7513 31.63 84.6343 31.498 84.4843 31.378C84.3343 31.252 84.1633 31.15 83.9713 31.072C83.7793 30.988 83.5783 30.94 83.3683 30.928C83.0983 30.916 82.8523 30.94 82.6303 31C82.4083 31.06 82.2283 31.162 82.0903 31.306C81.9583 31.45 81.8923 31.642 81.8923 31.882C81.8923 32.11 81.9823 32.281 82.1623 32.395C82.3423 32.503 82.5583 32.587 82.8103 32.647C83.0683 32.707 83.3143 32.773 83.5483 32.845C84.0763 33.019 84.5713 33.232 85.0333 33.484C85.5013 33.736 85.8763 34.045 86.1583 34.411C86.4403 34.777 86.5753 35.215 86.5633 35.725C86.5633 36.307 86.3893 36.817 86.0413 37.255C85.6933 37.687 85.2433 38.017 84.6913 38.245C84.1453 38.473 83.5603 38.563 82.9363 38.515ZM93.1829 35.644L95.1629 36.715C94.7489 37.279 94.2299 37.732 93.6059 38.074C92.9819 38.416 92.3009 38.587 91.5629 38.587C90.7349 38.587 89.9789 38.374 89.2949 37.948C88.6169 37.522 88.0739 36.952 87.6659 36.238C87.2639 35.518 87.0629 34.723 87.0629 33.853C87.0629 33.193 87.1799 32.578 87.4139 32.008C87.6479 31.432 87.9689 30.928 88.3769 30.496C88.7909 30.058 89.2709 29.716 89.8169 29.47C90.3629 29.224 90.9449 29.101 91.5629 29.101C92.3009 29.101 92.9819 29.272 93.6059 29.614C94.2299 29.956 94.7489 30.415 95.1629 30.991L93.1829 32.053C92.9729 31.813 92.7239 31.627 92.4359 31.495C92.1539 31.363 91.8629 31.297 91.5629 31.297C91.1309 31.297 90.7409 31.417 90.3929 31.657C90.0449 31.891 89.7689 32.203 89.5649 32.593C89.3609 32.977 89.2589 33.397 89.2589 33.853C89.2589 34.303 89.3609 34.723 89.5649 35.113C89.7689 35.497 90.0449 35.806 90.3929 36.04C90.7409 36.274 91.1309 36.391 91.5629 36.391C91.8749 36.391 92.1719 36.325 92.4539 36.193C92.7359 36.055 92.9789 35.872 93.1829 35.644ZM96.4277 38.353L96.4187 29.353H98.6147L98.6237 30.154C98.9297 29.83 99.2957 29.575 99.7217 29.389C100.148 29.197 100.607 29.101 101.099 29.101C101.429 29.101 101.759 29.149 102.089 29.245L101.225 31.459C100.997 31.369 100.769 31.324 100.541 31.324C100.187 31.324 99.8627 31.411 99.5687 31.585C99.2807 31.753 99.0497 31.984 98.8757 32.278C98.7077 32.566 98.6237 32.887 98.6237 33.241V38.353H96.4277ZM102.703 29.353H104.899V38.353H102.703V29.353ZM103.819 28.192C103.495 28.192 103.222 28.087 103 27.877C102.778 27.661 102.667 27.391 102.667 27.067C102.667 26.749 102.778 26.482 103 26.266C103.222 26.05 103.492 25.942 103.81 25.942C104.128 25.942 104.395 26.05 104.611 26.266C104.833 26.482 104.944 26.749 104.944 27.067C104.944 27.391 104.836 27.661 104.62 27.877C104.404 28.087 104.137 28.192 103.819 28.192ZM111.526 29.101C112.402 29.101 113.2 29.314 113.92 29.74C114.64 30.166 115.213 30.739 115.639 31.459C116.065 32.173 116.278 32.965 116.278 33.835C116.278 34.489 116.155 35.104 115.909 35.68C115.663 36.256 115.321 36.763 114.883 37.201C114.451 37.633 113.947 37.972 113.371 38.218C112.801 38.464 112.186 38.587 111.526 38.587C110.962 38.587 110.461 38.461 110.023 38.209C109.591 37.951 109.228 37.618 108.934 37.21V38.353H106.738V24.853H108.934V30.478C109.228 30.07 109.591 29.74 110.023 29.488C110.461 29.23 110.962 29.101 111.526 29.101ZM111.499 36.463C111.967 36.463 112.39 36.346 112.768 36.112C113.152 35.872 113.458 35.554 113.686 35.158C113.914 34.762 114.028 34.321 114.028 33.835C114.028 33.355 113.914 32.917 113.686 32.521C113.458 32.119 113.152 31.801 112.768 31.567C112.384 31.333 111.961 31.216 111.499 31.216C111.043 31.216 110.635 31.336 110.275 31.576C109.915 31.81 109.633 32.128 109.429 32.53C109.225 32.926 109.123 33.361 109.123 33.835C109.123 34.321 109.225 34.765 109.429 35.167C109.633 35.563 109.915 35.878 110.275 36.112C110.635 36.346 111.043 36.463 111.499 36.463ZM121.324 38.587C120.496 38.587 119.74 38.374 119.056 37.948C118.378 37.522 117.835 36.949 117.427 36.229C117.025 35.509 116.824 34.714 116.824 33.844C116.824 33.19 116.941 32.578 117.175 32.008C117.409 31.432 117.73 30.928 118.138 30.496C118.552 30.058 119.032 29.716 119.578 29.47C120.124 29.224 120.706 29.101 121.324 29.101C122.026 29.101 122.668 29.251 123.25 29.551C123.838 29.845 124.336 30.25 124.744 30.766C125.152 31.282 125.449 31.87 125.635 32.53C125.821 33.19 125.863 33.88 125.761 34.6H119.182C119.266 34.936 119.404 35.239 119.596 35.509C119.788 35.773 120.031 35.986 120.325 36.148C120.619 36.304 120.952 36.385 121.324 36.391C121.708 36.397 122.056 36.307 122.368 36.121C122.686 35.929 122.95 35.671 123.16 35.347L125.401 35.869C125.035 36.667 124.489 37.321 123.763 37.831C123.037 38.335 122.224 38.587 121.324 38.587ZM119.11 32.953H123.538C123.472 32.593 123.331 32.269 123.115 31.981C122.905 31.687 122.644 31.453 122.332 31.279C122.02 31.105 121.684 31.018 121.324 31.018C120.964 31.018 120.631 31.105 120.325 31.279C120.019 31.447 119.758 31.678 119.542 31.972C119.332 32.26 119.188 32.587 119.11 32.953ZM135.865 31.549H134.119V38.353H131.923V31.549H130.591V29.353H131.923V26.527H134.119V29.353H135.865V31.549ZM140.881 38.587C140.053 38.587 139.297 38.374 138.613 37.948C137.935 37.522 137.392 36.952 136.984 36.238C136.582 35.518 136.381 34.723 136.381 33.853C136.381 33.193 136.498 32.578 136.732 32.008C136.966 31.432 137.287 30.928 137.695 30.496C138.109 30.058 138.589 29.716 139.135 29.47C139.681 29.224 140.263 29.101 140.881 29.101C141.709 29.101 142.462 29.314 143.14 29.74C143.824 30.166 144.367 30.739 144.769 31.459C145.177 32.179 145.381 32.977 145.381 33.853C145.381 34.507 145.264 35.119 145.03 35.689C144.796 36.259 144.472 36.763 144.058 37.201C143.65 37.633 143.173 37.972 142.627 38.218C142.087 38.464 141.505 38.587 140.881 38.587ZM140.881 36.391C141.319 36.391 141.712 36.274 142.06 36.04C142.408 35.806 142.681 35.497 142.879 35.113C143.083 34.729 143.185 34.309 143.185 33.853C143.185 33.385 143.08 32.959 142.87 32.575C142.666 32.185 142.387 31.876 142.033 31.648C141.685 31.414 141.301 31.297 140.881 31.297C140.449 31.297 140.059 31.414 139.711 31.648C139.363 31.882 139.087 32.194 138.883 32.584C138.679 32.974 138.577 33.397 138.577 33.853C138.577 34.327 138.682 34.756 138.892 35.14C139.102 35.524 139.381 35.83 139.729 36.058C140.083 36.28 140.467 36.391 140.881 36.391ZM154.557 38.587C153.729 38.587 152.973 38.374 152.289 37.948C151.611 37.522 151.068 36.952 150.66 36.238C150.258 35.518 150.057 34.723 150.057 33.853C150.057 33.193 150.174 32.578 150.408 32.008C150.642 31.432 150.963 30.928 151.371 30.496C151.785 30.058 152.265 29.716 152.811 29.47C153.357 29.224 153.939 29.101 154.557 29.101C155.385 29.101 156.138 29.314 156.816 29.74C157.5 30.166 158.043 30.739 158.445 31.459C158.853 32.179 159.057 32.977 159.057 33.853C159.057 34.507 158.94 35.119 158.706 35.689C158.472 36.259 158.148 36.763 157.734 37.201C157.326 37.633 156.849 37.972 156.303 38.218C155.763 38.464 155.181 38.587 154.557 38.587ZM154.557 36.391C154.995 36.391 155.388 36.274 155.736 36.04C156.084 35.806 156.357 35.497 156.555 35.113C156.759 34.729 156.861 34.309 156.861 33.853C156.861 33.385 156.756 32.959 156.546 32.575C156.342 32.185 156.063 31.876 155.709 31.648C155.361 31.414 154.977 31.297 154.557 31.297C154.125 31.297 153.735 31.414 153.387 31.648C153.039 31.882 152.763 32.194 152.559 32.584C152.355 32.974 152.253 33.397 152.253 33.853C152.253 34.327 152.358 34.756 152.568 35.14C152.778 35.524 153.057 35.83 153.405 36.058C153.759 36.28 154.143 36.391 154.557 36.391ZM159.545 35.023V29.353H161.741V34.447C161.741 34.801 161.828 35.125 162.002 35.419C162.176 35.707 162.407 35.938 162.695 36.112C162.989 36.28 163.31 36.364 163.658 36.364C164.018 36.364 164.342 36.28 164.63 36.112C164.918 35.938 165.149 35.707 165.323 35.419C165.497 35.125 165.584 34.801 165.584 34.447V29.353H167.78L167.789 38.353H165.593L165.584 37.534C165.272 37.858 164.903 38.116 164.477 38.308C164.051 38.494 163.595 38.587 163.109 38.587C162.455 38.587 161.858 38.428 161.318 38.11C160.778 37.786 160.346 37.357 160.022 36.823C159.704 36.283 159.545 35.683 159.545 35.023ZM169.24 38.353L169.231 29.353H171.427L171.436 30.154C171.742 29.83 172.108 29.575 172.534 29.389C172.96 29.197 173.419 29.101 173.911 29.101C174.241 29.101 174.571 29.149 174.901 29.245L174.037 31.459C173.809 31.369 173.581 31.324 173.353 31.324C172.999 31.324 172.675 31.411 172.381 31.585C172.093 31.753 171.862 31.984 171.688 32.278C171.52 32.566 171.436 32.887 171.436 33.241V38.353H169.24ZM179.761 38.353V25.753H182.137L187.456 34.384V25.753H189.652V38.353H187.285L181.957 29.722V38.353H179.761ZM195.279 38.587C194.451 38.587 193.695 38.374 193.011 37.948C192.333 37.522 191.79 36.949 191.382 36.229C190.98 35.509 190.779 34.714 190.779 33.844C190.779 33.19 190.896 32.578 191.13 32.008C191.364 31.432 191.685 30.928 192.093 30.496C192.507 30.058 192.987 29.716 193.533 29.47C194.079 29.224 194.661 29.101 195.279 29.101C195.981 29.101 196.623 29.251 197.205 29.551C197.793 29.845 198.291 30.25 198.699 30.766C199.107 31.282 199.404 31.87 199.59 32.53C199.776 33.19 199.818 33.88 199.716 34.6H193.137C193.221 34.936 193.359 35.239 193.551 35.509C193.743 35.773 193.986 35.986 194.28 36.148C194.574 36.304 194.907 36.385 195.279 36.391C195.663 36.397 196.011 36.307 196.323 36.121C196.641 35.929 196.905 35.671 197.115 35.347L199.356 35.869C198.99 36.667 198.444 37.321 197.718 37.831C196.992 38.335 196.179 38.587 195.279 38.587ZM193.065 32.953H197.493C197.427 32.593 197.286 32.269 197.07 31.981C196.86 31.687 196.599 31.453 196.287 31.279C195.975 31.105 195.639 31.018 195.279 31.018C194.919 31.018 194.586 31.105 194.28 31.279C193.974 31.447 193.713 31.678 193.497 31.972C193.287 32.26 193.143 32.587 193.065 32.953ZM205.042 38.353H202.864L199.858 29.353H202.009L203.962 35.176L205.906 29.353H208.075L210.019 35.176L211.972 29.353H214.123L211.117 38.353H208.939L206.986 32.503L205.042 38.353ZM217.687 38.515C217.219 38.485 216.766 38.392 216.328 38.236C215.896 38.074 215.512 37.855 215.176 37.579C214.84 37.303 214.582 36.973 214.402 36.589L216.256 35.797C216.328 35.917 216.445 36.046 216.607 36.184C216.769 36.316 216.961 36.427 217.183 36.517C217.411 36.607 217.66 36.652 217.93 36.652C218.158 36.652 218.374 36.622 218.578 36.562C218.788 36.496 218.956 36.397 219.082 36.265C219.214 36.133 219.28 35.962 219.28 35.752C219.28 35.53 219.202 35.359 219.046 35.239C218.896 35.113 218.704 35.02 218.47 34.96C218.242 34.894 218.02 34.834 217.804 34.78C217.234 34.666 216.703 34.489 216.211 34.249C215.725 34.009 215.332 33.7 215.032 33.322C214.738 32.938 214.591 32.476 214.591 31.936C214.591 31.342 214.747 30.829 215.059 30.397C215.377 29.965 215.788 29.632 216.292 29.398C216.802 29.164 217.351 29.047 217.939 29.047C218.653 29.047 219.307 29.197 219.901 29.497C220.501 29.791 220.975 30.208 221.323 30.748L219.586 31.774C219.502 31.63 219.385 31.498 219.235 31.378C219.085 31.252 218.914 31.15 218.722 31.072C218.53 30.988 218.329 30.94 218.119 30.928C217.849 30.916 217.603 30.94 217.381 31C217.159 31.06 216.979 31.162 216.841 31.306C216.709 31.45 216.643 31.642 216.643 31.882C216.643 32.11 216.733 32.281 216.913 32.395C217.093 32.503 217.309 32.587 217.561 32.647C217.819 32.707 218.065 32.773 218.299 32.845C218.827 33.019 219.322 33.232 219.784 33.484C220.252 33.736 220.627 34.045 220.909 34.411C221.191 34.777 221.326 35.215 221.314 35.725C221.314 36.307 221.14 36.817 220.792 37.255C220.444 37.687 219.994 38.017 219.442 38.245C218.896 38.473 218.311 38.563 217.687 38.515ZM222.495 38.353V24.853H224.691V38.353H222.495ZM230.313 38.587C229.485 38.587 228.729 38.374 228.045 37.948C227.367 37.522 226.824 36.949 226.416 36.229C226.014 35.509 225.813 34.714 225.813 33.844C225.813 33.19 225.93 32.578 226.164 32.008C226.398 31.432 226.719 30.928 227.127 30.496C227.541 30.058 228.021 29.716 228.567 29.47C229.113 29.224 229.695 29.101 230.313 29.101C231.015 29.101 231.657 29.251 232.239 29.551C232.827 29.845 233.325 30.25 233.733 30.766C234.141 31.282 234.438 31.87 234.624 32.53C234.81 33.19 234.852 33.88 234.75 34.6H228.171C228.255 34.936 228.393 35.239 228.585 35.509C228.777 35.773 229.02 35.986 229.314 36.148C229.608 36.304 229.941 36.385 230.313 36.391C230.697 36.397 231.045 36.307 231.357 36.121C231.675 35.929 231.939 35.671 232.149 35.347L234.39 35.869C234.024 36.667 233.478 37.321 232.752 37.831C232.026 38.335 231.213 38.587 230.313 38.587ZM228.099 32.953H232.527C232.461 32.593 232.32 32.269 232.104 31.981C231.894 31.687 231.633 31.453 231.321 31.279C231.009 31.105 230.673 31.018 230.313 31.018C229.953 31.018 229.62 31.105 229.314 31.279C229.008 31.447 228.747 31.678 228.531 31.972C228.321 32.26 228.177 32.587 228.099 32.953ZM240.679 31.549H238.933V38.353H236.737V31.549H235.405V29.353H236.737V26.527H238.933V29.353H240.679V31.549ZM246.77 31.549H245.024V38.353H242.828V31.549H241.496V29.353H242.828V26.527H245.024V29.353H246.77V31.549ZM251.786 38.587C250.958 38.587 250.202 38.374 249.518 37.948C248.84 37.522 248.297 36.949 247.889 36.229C247.487 35.509 247.286 34.714 247.286 33.844C247.286 33.19 247.403 32.578 247.637 32.008C247.871 31.432 248.192 30.928 248.6 30.496C249.014 30.058 249.494 29.716 250.04 29.47C250.586 29.224 251.168 29.101 251.786 29.101C252.488 29.101 253.13 29.251 253.712 29.551C254.3 29.845 254.798 30.25 255.206 30.766C255.614 31.282 255.911 31.87 256.097 32.53C256.283 33.19 256.325 33.88 256.223 34.6H249.644C249.728 34.936 249.866 35.239 250.058 35.509C250.25 35.773 250.493 35.986 250.787 36.148C251.081 36.304 251.414 36.385 251.786 36.391C252.17 36.397 252.518 36.307 252.83 36.121C253.148 35.929 253.412 35.671 253.622 35.347L255.863 35.869C255.497 36.667 254.951 37.321 254.225 37.831C253.499 38.335 252.686 38.587 251.786 38.587ZM249.572 32.953H254C253.934 32.593 253.793 32.269 253.577 31.981C253.367 31.687 253.106 31.453 252.794 31.279C252.482 31.105 252.146 31.018 251.786 31.018C251.426 31.018 251.093 31.105 250.787 31.279C250.481 31.447 250.22 31.678 250.004 31.972C249.794 32.26 249.65 32.587 249.572 32.953ZM257.336 38.353L257.327 29.353H259.523L259.532 30.154C259.838 29.83 260.204 29.575 260.63 29.389C261.056 29.197 261.515 29.101 262.007 29.101C262.337 29.101 262.667 29.149 262.997 29.245L262.133 31.459C261.905 31.369 261.677 31.324 261.449 31.324C261.095 31.324 260.771 31.411 260.477 31.585C260.189 31.753 259.958 31.984 259.784 32.278C259.616 32.566 259.532 32.887 259.532 33.241V38.353H257.336ZM263.731 34.573V25.753H265.585V34.573H263.731ZM264.667 38.587C264.349 38.587 264.079 38.476 263.857 38.254C263.641 38.032 263.533 37.762 263.533 37.444C263.533 37.132 263.641 36.868 263.857 36.652C264.079 36.436 264.349 36.328 264.667 36.328C264.973 36.328 265.234 36.436 265.45 36.652C265.666 36.868 265.774 37.132 265.774 37.444C265.774 37.762 265.666 38.032 265.45 38.254C265.234 38.476 264.973 38.587 264.667 38.587Z" fill="white"/>
<rect x="283.5" y="0.353027" width="64" height="64" rx="32" fill="#926247"/>
<path d="M305.5 32.353L324.5 32.353" stroke="white" stroke-width="2" stroke-linejoin="round"/>
<path d="M320.053 38.1486C321.329 37.8067 322.456 37.0535 323.26 36.0056C324.064 34.9577 324.5 33.6738 324.5 32.353C324.5 31.0322 324.064 29.7483 323.26 28.7005C322.456 27.6526 321.329 26.8993 320.053 26.5575" stroke="white" stroke-width="2" stroke-linejoin="round"/>
</g>
<defs>
<clipPath id="clip0_1582_706">
<rect x="0.5" y="0.353027" width="347" height="64" rx="32" fill="white"/>
</clipPath>
</defs>
</svg>
