<svg width="319" height="64" viewBox="0 0 319 64" fill="none" xmlns="http://www.w3.org/2000/svg">
<g clip-path="url(#clip0_1582_891)">
<rect x="0.5" width="318" height="64" rx="32" fill="#6D4B36"/>
<rect x="19.5" y="25" width="18" height="14" rx="7" stroke="white" stroke-width="2" stroke-linejoin="round"/>
<path d="M34.5 26C34.5 26.7879 34.3448 27.5681 34.0433 28.2961C33.7417 29.0241 33.2998 29.6855 32.7426 30.2426C32.1855 30.7998 31.5241 31.2417 30.7961 31.5433C30.0681 31.8448 29.2879 32 28.5 32C27.7121 32 26.9319 31.8448 26.2039 31.5433C25.4759 31.2417 24.8145 30.7998 24.2574 30.2426C23.7002 29.6855 23.2583 29.0241 22.9567 28.2961C22.6552 27.5681 22.5 26.7879 22.5 26" stroke="white" stroke-width="2" stroke-linejoin="round"/>
<path d="M54.116 38.234C53.42 38.234 52.751 38.126 52.109 37.91C51.473 37.688 50.915 37.373 50.435 36.965C49.955 36.551 49.61 36.056 49.4 35.48L51.461 34.724C51.545 34.964 51.716 35.183 51.974 35.381C52.232 35.579 52.547 35.738 52.919 35.858C53.291 35.978 53.69 36.038 54.116 36.038C54.554 36.038 54.962 35.972 55.34 35.84C55.724 35.702 56.033 35.513 56.267 35.273C56.501 35.027 56.618 34.742 56.618 34.418C56.618 34.088 56.495 33.818 56.249 33.608C56.003 33.392 55.688 33.221 55.304 33.095C54.92 32.969 54.524 32.873 54.116 32.807C53.222 32.669 52.421 32.456 51.713 32.168C51.005 31.88 50.444 31.481 50.03 30.971C49.622 30.461 49.418 29.801 49.418 28.991C49.418 28.229 49.637 27.563 50.075 26.993C50.513 26.423 51.089 25.979 51.803 25.661C52.517 25.343 53.288 25.184 54.116 25.184C54.806 25.184 55.472 25.292 56.114 25.508C56.756 25.724 57.317 26.039 57.797 26.453C58.283 26.867 58.631 27.365 58.841 27.947L56.771 28.694C56.687 28.454 56.516 28.235 56.258 28.037C56 27.839 55.685 27.683 55.313 27.569C54.941 27.449 54.542 27.389 54.116 27.389C53.69 27.383 53.285 27.452 52.901 27.596C52.523 27.734 52.214 27.923 51.974 28.163C51.734 28.403 51.614 28.679 51.614 28.991C51.614 29.393 51.725 29.696 51.947 29.9C52.175 30.104 52.478 30.254 52.856 30.35C53.234 30.44 53.654 30.524 54.116 30.602C54.956 30.734 55.733 30.956 56.447 31.268C57.161 31.58 57.734 31.997 58.166 32.519C58.598 33.035 58.814 33.668 58.814 34.418C58.814 35.18 58.598 35.849 58.166 36.425C57.734 36.995 57.161 37.439 56.447 37.757C55.733 38.075 54.956 38.234 54.116 38.234ZM59.8815 34.67V29H62.0775V34.094C62.0775 34.448 62.1645 34.772 62.3385 35.066C62.5125 35.354 62.7435 35.585 63.0315 35.759C63.3255 35.927 63.6465 36.011 63.9945 36.011C64.3545 36.011 64.6785 35.927 64.9665 35.759C65.2545 35.585 65.4855 35.354 65.6595 35.066C65.8335 34.772 65.9205 34.448 65.9205 34.094V29H68.1165L68.1255 38H65.9295L65.9205 37.181C65.6085 37.505 65.2395 37.763 64.8135 37.955C64.3875 38.141 63.9315 38.234 63.4455 38.234C62.7915 38.234 62.1945 38.075 61.6545 37.757C61.1145 37.433 60.6825 37.004 60.3585 36.47C60.0405 35.93 59.8815 35.33 59.8815 34.67ZM74.4078 28.748C75.2838 28.748 76.0818 28.961 76.8018 29.387C77.5218 29.813 78.0948 30.386 78.5208 31.106C78.9468 31.82 79.1598 32.612 79.1598 33.482C79.1598 34.136 79.0368 34.751 78.7908 35.327C78.5448 35.903 78.2028 36.41 77.7648 36.848C77.3328 37.28 76.8288 37.619 76.2528 37.865C75.6828 38.111 75.0678 38.234 74.4078 38.234C73.8438 38.234 73.3428 38.108 72.9048 37.856C72.4728 37.598 72.1098 37.265 71.8158 36.857V38H69.6198V24.5H71.8158V30.125C72.1098 29.717 72.4728 29.387 72.9048 29.135C73.3428 28.877 73.8438 28.748 74.4078 28.748ZM74.3808 36.11C74.8488 36.11 75.2718 35.993 75.6498 35.759C76.0338 35.519 76.3398 35.201 76.5678 34.805C76.7958 34.409 76.9098 33.968 76.9098 33.482C76.9098 33.002 76.7958 32.564 76.5678 32.168C76.3398 31.766 76.0338 31.448 75.6498 31.214C75.2658 30.98 74.8428 30.863 74.3808 30.863C73.9248 30.863 73.5168 30.983 73.1568 31.223C72.7968 31.457 72.5148 31.775 72.3108 32.177C72.1068 32.573 72.0048 33.008 72.0048 33.482C72.0048 33.968 72.1068 34.412 72.3108 34.814C72.5148 35.21 72.7968 35.525 73.1568 35.759C73.5168 35.993 73.9248 36.11 74.3808 36.11ZM82.9363 38.162C82.4683 38.132 82.0153 38.039 81.5773 37.883C81.1453 37.721 80.7613 37.502 80.4253 37.226C80.0893 36.95 79.8313 36.62 79.6513 36.236L81.5053 35.444C81.5773 35.564 81.6943 35.693 81.8563 35.831C82.0183 35.963 82.2103 36.074 82.4323 36.164C82.6603 36.254 82.9093 36.299 83.1793 36.299C83.4073 36.299 83.6233 36.269 83.8273 36.209C84.0373 36.143 84.2053 36.044 84.3313 35.912C84.4633 35.78 84.5293 35.609 84.5293 35.399C84.5293 35.177 84.4513 35.006 84.2953 34.886C84.1453 34.76 83.9533 34.667 83.7193 34.607C83.4913 34.541 83.2693 34.481 83.0533 34.427C82.4833 34.313 81.9523 34.136 81.4603 33.896C80.9743 33.656 80.5813 33.347 80.2813 32.969C79.9873 32.585 79.8403 32.123 79.8403 31.583C79.8403 30.989 79.9963 30.476 80.3083 30.044C80.6263 29.612 81.0373 29.279 81.5413 29.045C82.0513 28.811 82.6003 28.694 83.1883 28.694C83.9023 28.694 84.5563 28.844 85.1503 29.144C85.7503 29.438 86.2243 29.855 86.5723 30.395L84.8353 31.421C84.7513 31.277 84.6343 31.145 84.4843 31.025C84.3343 30.899 84.1633 30.797 83.9713 30.719C83.7793 30.635 83.5783 30.587 83.3683 30.575C83.0983 30.563 82.8523 30.587 82.6303 30.647C82.4083 30.707 82.2283 30.809 82.0903 30.953C81.9583 31.097 81.8923 31.289 81.8923 31.529C81.8923 31.757 81.9823 31.928 82.1623 32.042C82.3423 32.15 82.5583 32.234 82.8103 32.294C83.0683 32.354 83.3143 32.42 83.5483 32.492C84.0763 32.666 84.5713 32.879 85.0333 33.131C85.5013 33.383 85.8763 33.692 86.1583 34.058C86.4403 34.424 86.5753 34.862 86.5633 35.372C86.5633 35.954 86.3893 36.464 86.0413 36.902C85.6933 37.334 85.2433 37.664 84.6913 37.892C84.1453 38.12 83.5603 38.21 82.9363 38.162ZM93.1829 35.291L95.1629 36.362C94.7489 36.926 94.2299 37.379 93.6059 37.721C92.9819 38.063 92.3009 38.234 91.5629 38.234C90.7349 38.234 89.9789 38.021 89.2949 37.595C88.6169 37.169 88.0739 36.599 87.6659 35.885C87.2639 35.165 87.0629 34.37 87.0629 33.5C87.0629 32.84 87.1799 32.225 87.4139 31.655C87.6479 31.079 87.9689 30.575 88.3769 30.143C88.7909 29.705 89.2709 29.363 89.8169 29.117C90.3629 28.871 90.9449 28.748 91.5629 28.748C92.3009 28.748 92.9819 28.919 93.6059 29.261C94.2299 29.603 94.7489 30.062 95.1629 30.638L93.1829 31.7C92.9729 31.46 92.7239 31.274 92.4359 31.142C92.1539 31.01 91.8629 30.944 91.5629 30.944C91.1309 30.944 90.7409 31.064 90.3929 31.304C90.0449 31.538 89.7689 31.85 89.5649 32.24C89.3609 32.624 89.2589 33.044 89.2589 33.5C89.2589 33.95 89.3609 34.37 89.5649 34.76C89.7689 35.144 90.0449 35.453 90.3929 35.687C90.7409 35.921 91.1309 36.038 91.5629 36.038C91.8749 36.038 92.1719 35.972 92.4539 35.84C92.7359 35.702 92.9789 35.519 93.1829 35.291ZM96.4277 38L96.4187 29H98.6147L98.6237 29.801C98.9297 29.477 99.2957 29.222 99.7217 29.036C100.148 28.844 100.607 28.748 101.099 28.748C101.429 28.748 101.759 28.796 102.089 28.892L101.225 31.106C100.997 31.016 100.769 30.971 100.541 30.971C100.187 30.971 99.8627 31.058 99.5687 31.232C99.2807 31.4 99.0497 31.631 98.8757 31.925C98.7077 32.213 98.6237 32.534 98.6237 32.888V38H96.4277ZM102.703 29H104.899V38H102.703V29ZM103.819 27.839C103.495 27.839 103.222 27.734 103 27.524C102.778 27.308 102.667 27.038 102.667 26.714C102.667 26.396 102.778 26.129 103 25.913C103.222 25.697 103.492 25.589 103.81 25.589C104.128 25.589 104.395 25.697 104.611 25.913C104.833 26.129 104.944 26.396 104.944 26.714C104.944 27.038 104.836 27.308 104.62 27.524C104.404 27.734 104.137 27.839 103.819 27.839ZM111.526 28.748C112.402 28.748 113.2 28.961 113.92 29.387C114.64 29.813 115.213 30.386 115.639 31.106C116.065 31.82 116.278 32.612 116.278 33.482C116.278 34.136 116.155 34.751 115.909 35.327C115.663 35.903 115.321 36.41 114.883 36.848C114.451 37.28 113.947 37.619 113.371 37.865C112.801 38.111 112.186 38.234 111.526 38.234C110.962 38.234 110.461 38.108 110.023 37.856C109.591 37.598 109.228 37.265 108.934 36.857V38H106.738V24.5H108.934V30.125C109.228 29.717 109.591 29.387 110.023 29.135C110.461 28.877 110.962 28.748 111.526 28.748ZM111.499 36.11C111.967 36.11 112.39 35.993 112.768 35.759C113.152 35.519 113.458 35.201 113.686 34.805C113.914 34.409 114.028 33.968 114.028 33.482C114.028 33.002 113.914 32.564 113.686 32.168C113.458 31.766 113.152 31.448 112.768 31.214C112.384 30.98 111.961 30.863 111.499 30.863C111.043 30.863 110.635 30.983 110.275 31.223C109.915 31.457 109.633 31.775 109.429 32.177C109.225 32.573 109.123 33.008 109.123 33.482C109.123 33.968 109.225 34.412 109.429 34.814C109.633 35.21 109.915 35.525 110.275 35.759C110.635 35.993 111.043 36.11 111.499 36.11ZM121.324 38.234C120.496 38.234 119.74 38.021 119.056 37.595C118.378 37.169 117.835 36.596 117.427 35.876C117.025 35.156 116.824 34.361 116.824 33.491C116.824 32.837 116.941 32.225 117.175 31.655C117.409 31.079 117.73 30.575 118.138 30.143C118.552 29.705 119.032 29.363 119.578 29.117C120.124 28.871 120.706 28.748 121.324 28.748C122.026 28.748 122.668 28.898 123.25 29.198C123.838 29.492 124.336 29.897 124.744 30.413C125.152 30.929 125.449 31.517 125.635 32.177C125.821 32.837 125.863 33.527 125.761 34.247H119.182C119.266 34.583 119.404 34.886 119.596 35.156C119.788 35.42 120.031 35.633 120.325 35.795C120.619 35.951 120.952 36.032 121.324 36.038C121.708 36.044 122.056 35.954 122.368 35.768C122.686 35.576 122.95 35.318 123.16 34.994L125.401 35.516C125.035 36.314 124.489 36.968 123.763 37.478C123.037 37.982 122.224 38.234 121.324 38.234ZM119.11 32.6H123.538C123.472 32.24 123.331 31.916 123.115 31.628C122.905 31.334 122.644 31.1 122.332 30.926C122.02 30.752 121.684 30.665 121.324 30.665C120.964 30.665 120.631 30.752 120.325 30.926C120.019 31.094 119.758 31.325 119.542 31.619C119.332 31.907 119.188 32.234 119.11 32.6ZM135.865 31.196H134.119V38H131.923V31.196H130.591V29H131.923V26.174H134.119V29H135.865V31.196ZM140.881 38.234C140.053 38.234 139.297 38.021 138.613 37.595C137.935 37.169 137.392 36.599 136.984 35.885C136.582 35.165 136.381 34.37 136.381 33.5C136.381 32.84 136.498 32.225 136.732 31.655C136.966 31.079 137.287 30.575 137.695 30.143C138.109 29.705 138.589 29.363 139.135 29.117C139.681 28.871 140.263 28.748 140.881 28.748C141.709 28.748 142.462 28.961 143.14 29.387C143.824 29.813 144.367 30.386 144.769 31.106C145.177 31.826 145.381 32.624 145.381 33.5C145.381 34.154 145.264 34.766 145.03 35.336C144.796 35.906 144.472 36.41 144.058 36.848C143.65 37.28 143.173 37.619 142.627 37.865C142.087 38.111 141.505 38.234 140.881 38.234ZM140.881 36.038C141.319 36.038 141.712 35.921 142.06 35.687C142.408 35.453 142.681 35.144 142.879 34.76C143.083 34.376 143.185 33.956 143.185 33.5C143.185 33.032 143.08 32.606 142.87 32.222C142.666 31.832 142.387 31.523 142.033 31.295C141.685 31.061 141.301 30.944 140.881 30.944C140.449 30.944 140.059 31.061 139.711 31.295C139.363 31.529 139.087 31.841 138.883 32.231C138.679 32.621 138.577 33.044 138.577 33.5C138.577 33.974 138.682 34.403 138.892 34.787C139.102 35.171 139.381 35.477 139.729 35.705C140.083 35.927 140.467 36.038 140.881 36.038ZM150.597 38V25.4H152.973L158.292 34.031V25.4H160.488V38H158.121L152.793 29.369V38H150.597ZM166.115 38.234C165.287 38.234 164.531 38.021 163.847 37.595C163.169 37.169 162.626 36.596 162.218 35.876C161.816 35.156 161.615 34.361 161.615 33.491C161.615 32.837 161.732 32.225 161.966 31.655C162.2 31.079 162.521 30.575 162.929 30.143C163.343 29.705 163.823 29.363 164.369 29.117C164.915 28.871 165.497 28.748 166.115 28.748C166.817 28.748 167.459 28.898 168.041 29.198C168.629 29.492 169.127 29.897 169.535 30.413C169.943 30.929 170.24 31.517 170.426 32.177C170.612 32.837 170.654 33.527 170.552 34.247H163.973C164.057 34.583 164.195 34.886 164.387 35.156C164.579 35.42 164.822 35.633 165.116 35.795C165.41 35.951 165.743 36.032 166.115 36.038C166.499 36.044 166.847 35.954 167.159 35.768C167.477 35.576 167.741 35.318 167.951 34.994L170.192 35.516C169.826 36.314 169.28 36.968 168.554 37.478C167.828 37.982 167.015 38.234 166.115 38.234ZM163.901 32.6H168.329C168.263 32.24 168.122 31.916 167.906 31.628C167.696 31.334 167.435 31.1 167.123 30.926C166.811 30.752 166.475 30.665 166.115 30.665C165.755 30.665 165.422 30.752 165.116 30.926C164.81 31.094 164.549 31.325 164.333 31.619C164.123 31.907 163.979 32.234 163.901 32.6ZM175.879 38H173.701L170.695 29H172.846L174.799 34.823L176.743 29H178.912L180.856 34.823L182.809 29H184.96L181.954 38H179.776L177.823 32.15L175.879 38ZM188.524 38.162C188.056 38.132 187.603 38.039 187.165 37.883C186.733 37.721 186.349 37.502 186.013 37.226C185.677 36.95 185.419 36.62 185.239 36.236L187.093 35.444C187.165 35.564 187.282 35.693 187.444 35.831C187.606 35.963 187.798 36.074 188.02 36.164C188.248 36.254 188.497 36.299 188.767 36.299C188.995 36.299 189.211 36.269 189.415 36.209C189.625 36.143 189.793 36.044 189.919 35.912C190.051 35.78 190.117 35.609 190.117 35.399C190.117 35.177 190.039 35.006 189.883 34.886C189.733 34.76 189.541 34.667 189.307 34.607C189.079 34.541 188.857 34.481 188.641 34.427C188.071 34.313 187.54 34.136 187.048 33.896C186.562 33.656 186.169 33.347 185.869 32.969C185.575 32.585 185.428 32.123 185.428 31.583C185.428 30.989 185.584 30.476 185.896 30.044C186.214 29.612 186.625 29.279 187.129 29.045C187.639 28.811 188.188 28.694 188.776 28.694C189.49 28.694 190.144 28.844 190.738 29.144C191.338 29.438 191.812 29.855 192.16 30.395L190.423 31.421C190.339 31.277 190.222 31.145 190.072 31.025C189.922 30.899 189.751 30.797 189.559 30.719C189.367 30.635 189.166 30.587 188.956 30.575C188.686 30.563 188.44 30.587 188.218 30.647C187.996 30.707 187.816 30.809 187.678 30.953C187.546 31.097 187.48 31.289 187.48 31.529C187.48 31.757 187.57 31.928 187.75 32.042C187.93 32.15 188.146 32.234 188.398 32.294C188.656 32.354 188.902 32.42 189.136 32.492C189.664 32.666 190.159 32.879 190.621 33.131C191.089 33.383 191.464 33.692 191.746 34.058C192.028 34.424 192.163 34.862 192.151 35.372C192.151 35.954 191.977 36.464 191.629 36.902C191.281 37.334 190.831 37.664 190.279 37.892C189.733 38.12 189.148 38.21 188.524 38.162ZM193.331 38V24.5H195.527V38H193.331ZM201.15 38.234C200.322 38.234 199.566 38.021 198.882 37.595C198.204 37.169 197.661 36.596 197.253 35.876C196.851 35.156 196.65 34.361 196.65 33.491C196.65 32.837 196.767 32.225 197.001 31.655C197.235 31.079 197.556 30.575 197.964 30.143C198.378 29.705 198.858 29.363 199.404 29.117C199.95 28.871 200.532 28.748 201.15 28.748C201.852 28.748 202.494 28.898 203.076 29.198C203.664 29.492 204.162 29.897 204.57 30.413C204.978 30.929 205.275 31.517 205.461 32.177C205.647 32.837 205.689 33.527 205.587 34.247H199.008C199.092 34.583 199.23 34.886 199.422 35.156C199.614 35.42 199.857 35.633 200.151 35.795C200.445 35.951 200.778 36.032 201.15 36.038C201.534 36.044 201.882 35.954 202.194 35.768C202.512 35.576 202.776 35.318 202.986 34.994L205.227 35.516C204.861 36.314 204.315 36.968 203.589 37.478C202.863 37.982 202.05 38.234 201.15 38.234ZM198.936 32.6H203.364C203.298 32.24 203.157 31.916 202.941 31.628C202.731 31.334 202.47 31.1 202.158 30.926C201.846 30.752 201.51 30.665 201.15 30.665C200.79 30.665 200.457 30.752 200.151 30.926C199.845 31.094 199.584 31.325 199.368 31.619C199.158 31.907 199.014 32.234 198.936 32.6ZM211.515 31.196H209.769V38H207.573V31.196H206.241V29H207.573V26.174H209.769V29H211.515V31.196ZM217.606 31.196H215.86V38H213.664V31.196H212.332V29H213.664V26.174H215.86V29H217.606V31.196ZM222.623 38.234C221.795 38.234 221.039 38.021 220.355 37.595C219.677 37.169 219.134 36.596 218.726 35.876C218.324 35.156 218.123 34.361 218.123 33.491C218.123 32.837 218.24 32.225 218.474 31.655C218.708 31.079 219.029 30.575 219.437 30.143C219.851 29.705 220.331 29.363 220.877 29.117C221.423 28.871 222.005 28.748 222.623 28.748C223.325 28.748 223.967 28.898 224.549 29.198C225.137 29.492 225.635 29.897 226.043 30.413C226.451 30.929 226.748 31.517 226.934 32.177C227.12 32.837 227.162 33.527 227.06 34.247H220.481C220.565 34.583 220.703 34.886 220.895 35.156C221.087 35.42 221.33 35.633 221.624 35.795C221.918 35.951 222.251 36.032 222.623 36.038C223.007 36.044 223.355 35.954 223.667 35.768C223.985 35.576 224.249 35.318 224.459 34.994L226.7 35.516C226.334 36.314 225.788 36.968 225.062 37.478C224.336 37.982 223.523 38.234 222.623 38.234ZM220.409 32.6H224.837C224.771 32.24 224.63 31.916 224.414 31.628C224.204 31.334 223.943 31.1 223.631 30.926C223.319 30.752 222.983 30.665 222.623 30.665C222.263 30.665 221.93 30.752 221.624 30.926C221.318 31.094 221.057 31.325 220.841 31.619C220.631 31.907 220.487 32.234 220.409 32.6ZM228.173 38L228.164 29H230.36L230.369 29.801C230.675 29.477 231.041 29.222 231.467 29.036C231.893 28.844 232.352 28.748 232.844 28.748C233.174 28.748 233.504 28.796 233.834 28.892L232.97 31.106C232.742 31.016 232.514 30.971 232.286 30.971C231.932 30.971 231.608 31.058 231.314 31.232C231.026 31.4 230.795 31.631 230.621 31.925C230.453 32.213 230.369 32.534 230.369 32.888V38H228.173ZM234.568 34.22V25.4H236.422V34.22H234.568ZM235.504 38.234C235.186 38.234 234.916 38.123 234.694 37.901C234.478 37.679 234.37 37.409 234.37 37.091C234.37 36.779 234.478 36.515 234.694 36.299C234.916 36.083 235.186 35.975 235.504 35.975C235.81 35.975 236.071 36.083 236.287 36.299C236.503 36.515 236.611 36.779 236.611 37.091C236.611 37.409 236.503 37.679 236.287 37.901C236.071 38.123 235.81 38.234 235.504 38.234Z" fill="white"/>
<rect x="254.5" width="64" height="64" rx="32" fill="#926247"/>
<path d="M276.5 32L295.5 32" stroke="white" stroke-width="2" stroke-linejoin="round"/>
<path d="M291.053 37.7956C292.329 37.4537 293.456 36.7004 294.26 35.6526C295.064 34.6047 295.5 33.3208 295.5 32C295.5 30.6792 295.064 29.3953 294.26 28.3474C293.456 27.2996 292.329 26.5463 291.053 26.2044" stroke="white" stroke-width="2" stroke-linejoin="round"/>
</g>
<defs>
<clipPath id="clip0_1582_891">
<rect x="0.5" width="318" height="64" rx="32" fill="white"/>
</clipPath>
</defs>
</svg>
