<svg width="197" height="64" viewBox="0 0 197 64" fill="none" xmlns="http://www.w3.org/2000/svg">
<rect width="197" height="64" rx="32" fill="#FE814B"/>
<path d="M21.292 25.4H23.821L28.402 38H26.071L25.261 35.768H19.861L19.051 38H16.72L21.292 25.4ZM20.662 33.572H24.451L22.552 28.379L20.662 33.572ZM31.414 42.5H29.218V29H31.414V30.143C31.708 29.735 32.068 29.405 32.494 29.153C32.926 28.895 33.43 28.766 34.006 28.766C34.666 28.766 35.281 28.889 35.851 29.135C36.421 29.381 36.922 29.723 37.354 30.161C37.792 30.593 38.131 31.094 38.371 31.664C38.617 32.234 38.74 32.846 38.74 33.5C38.74 34.154 38.617 34.769 38.371 35.345C38.131 35.921 37.792 36.428 37.354 36.866C36.922 37.298 36.421 37.637 35.851 37.883C35.281 38.129 34.666 38.252 34.006 38.252C33.43 38.252 32.926 38.126 32.494 37.874C32.068 37.616 31.708 37.283 31.414 36.875V42.5ZM33.979 30.881C33.523 30.881 33.115 31.001 32.755 31.241C32.395 31.475 32.113 31.79 31.909 32.186C31.705 32.582 31.603 33.02 31.603 33.5C31.603 33.98 31.705 34.421 31.909 34.823C32.113 35.219 32.395 35.537 32.755 35.777C33.115 36.011 33.523 36.128 33.979 36.128C34.441 36.128 34.864 36.011 35.248 35.777C35.632 35.543 35.938 35.228 36.166 34.832C36.394 34.43 36.508 33.986 36.508 33.5C36.508 33.02 36.394 32.582 36.166 32.186C35.938 31.79 35.632 31.475 35.248 31.241C34.87 31.001 34.447 30.881 33.979 30.881ZM41.9876 42.5H39.7916V29H41.9876V30.143C42.2816 29.735 42.6416 29.405 43.0676 29.153C43.4996 28.895 44.0036 28.766 44.5796 28.766C45.2396 28.766 45.8546 28.889 46.4246 29.135C46.9946 29.381 47.4956 29.723 47.9276 30.161C48.3656 30.593 48.7046 31.094 48.9446 31.664C49.1906 32.234 49.3136 32.846 49.3136 33.5C49.3136 34.154 49.1906 34.769 48.9446 35.345C48.7046 35.921 48.3656 36.428 47.9276 36.866C47.4956 37.298 46.9946 37.637 46.4246 37.883C45.8546 38.129 45.2396 38.252 44.5796 38.252C44.0036 38.252 43.4996 38.126 43.0676 37.874C42.6416 37.616 42.2816 37.283 41.9876 36.875V42.5ZM44.5526 30.881C44.0966 30.881 43.6886 31.001 43.3286 31.241C42.9686 31.475 42.6866 31.79 42.4826 32.186C42.2786 32.582 42.1766 33.02 42.1766 33.5C42.1766 33.98 42.2786 34.421 42.4826 34.823C42.6866 35.219 42.9686 35.537 43.3286 35.777C43.6886 36.011 44.0966 36.128 44.5526 36.128C45.0146 36.128 45.4376 36.011 45.8216 35.777C46.2056 35.543 46.5116 35.228 46.7396 34.832C46.9676 34.43 47.0816 33.986 47.0816 33.5C47.0816 33.02 46.9676 32.582 46.7396 32.186C46.5116 31.79 46.2056 31.475 45.8216 31.241C45.4436 31.001 45.0206 30.881 44.5526 30.881ZM50.2246 38V24.5H52.4206V38H50.2246ZM58.0434 38.234C57.2154 38.234 56.4594 38.021 55.7754 37.595C55.0974 37.169 54.5544 36.596 54.1464 35.876C53.7444 35.156 53.5434 34.361 53.5434 33.491C53.5434 32.837 53.6604 32.225 53.8944 31.655C54.1284 31.079 54.4494 30.575 54.8574 30.143C55.2714 29.705 55.7514 29.363 56.2974 29.117C56.8434 28.871 57.4254 28.748 58.0434 28.748C58.7454 28.748 59.3874 28.898 59.9694 29.198C60.5574 29.492 61.0554 29.897 61.4634 30.413C61.8714 30.929 62.1684 31.517 62.3544 32.177C62.5404 32.837 62.5824 33.527 62.4804 34.247H55.9014C55.9854 34.583 56.1234 34.886 56.3154 35.156C56.5074 35.42 56.7504 35.633 57.0444 35.795C57.3384 35.951 57.6714 36.032 58.0434 36.038C58.4274 36.044 58.7754 35.954 59.0874 35.768C59.4054 35.576 59.6694 35.318 59.8794 34.994L62.1204 35.516C61.7544 36.314 61.2084 36.968 60.4824 37.478C59.7564 37.982 58.9434 38.234 58.0434 38.234ZM55.8294 32.6H60.2574C60.1914 32.24 60.0504 31.916 59.8344 31.628C59.6244 31.334 59.3634 31.1 59.0514 30.926C58.7394 30.752 58.4034 30.665 58.0434 30.665C57.6834 30.665 57.3504 30.752 57.0444 30.926C56.7384 31.094 56.4774 31.325 56.2614 31.619C56.0514 31.907 55.9074 32.234 55.8294 32.6ZM72.2958 38.234C71.5998 38.234 70.9308 38.126 70.2888 37.91C69.6528 37.688 69.0948 37.373 68.6148 36.965C68.1348 36.551 67.7898 36.056 67.5798 35.48L69.6408 34.724C69.7248 34.964 69.8958 35.183 70.1538 35.381C70.4118 35.579 70.7268 35.738 71.0988 35.858C71.4708 35.978 71.8698 36.038 72.2958 36.038C72.7338 36.038 73.1418 35.972 73.5198 35.84C73.9038 35.702 74.2128 35.513 74.4468 35.273C74.6808 35.027 74.7978 34.742 74.7978 34.418C74.7978 34.088 74.6748 33.818 74.4288 33.608C74.1828 33.392 73.8678 33.221 73.4838 33.095C73.0998 32.969 72.7038 32.873 72.2958 32.807C71.4018 32.669 70.6008 32.456 69.8928 32.168C69.1848 31.88 68.6238 31.481 68.2098 30.971C67.8018 30.461 67.5978 29.801 67.5978 28.991C67.5978 28.229 67.8168 27.563 68.2548 26.993C68.6928 26.423 69.2688 25.979 69.9828 25.661C70.6968 25.343 71.4678 25.184 72.2958 25.184C72.9858 25.184 73.6518 25.292 74.2938 25.508C74.9358 25.724 75.4968 26.039 75.9768 26.453C76.4628 26.867 76.8108 27.365 77.0208 27.947L74.9508 28.694C74.8668 28.454 74.6958 28.235 74.4378 28.037C74.1798 27.839 73.8648 27.683 73.4928 27.569C73.1208 27.449 72.7218 27.389 72.2958 27.389C71.8698 27.383 71.4648 27.452 71.0808 27.596C70.7028 27.734 70.3938 27.923 70.1538 28.163C69.9138 28.403 69.7938 28.679 69.7938 28.991C69.7938 29.393 69.9048 29.696 70.1268 29.9C70.3548 30.104 70.6578 30.254 71.0358 30.35C71.4138 30.44 71.8338 30.524 72.2958 30.602C73.1358 30.734 73.9128 30.956 74.6268 31.268C75.3408 31.58 75.9138 31.997 76.3458 32.519C76.7778 33.035 76.9938 33.668 76.9938 34.418C76.9938 35.18 76.7778 35.849 76.3458 36.425C75.9138 36.995 75.3408 37.439 74.6268 37.757C73.9128 38.075 73.1358 38.234 72.2958 38.234ZM83.2453 31.196H81.4993V38H79.3033V31.196H77.9713V29H79.3033V26.174H81.4993V29H83.2453V31.196ZM88.2616 38.234C87.4336 38.234 86.6776 38.021 85.9936 37.595C85.3156 37.169 84.7726 36.599 84.3646 35.885C83.9626 35.165 83.7616 34.37 83.7616 33.5C83.7616 32.84 83.8786 32.225 84.1126 31.655C84.3466 31.079 84.6676 30.575 85.0756 30.143C85.4896 29.705 85.9696 29.363 86.5156 29.117C87.0616 28.871 87.6436 28.748 88.2616 28.748C89.0896 28.748 89.8426 28.961 90.5206 29.387C91.2046 29.813 91.7476 30.386 92.1496 31.106C92.5576 31.826 92.7616 32.624 92.7616 33.5C92.7616 34.154 92.6446 34.766 92.4106 35.336C92.1766 35.906 91.8526 36.41 91.4386 36.848C91.0306 37.28 90.5536 37.619 90.0076 37.865C89.4676 38.111 88.8856 38.234 88.2616 38.234ZM88.2616 36.038C88.6996 36.038 89.0926 35.921 89.4406 35.687C89.7886 35.453 90.0616 35.144 90.2596 34.76C90.4636 34.376 90.5656 33.956 90.5656 33.5C90.5656 33.032 90.4606 32.606 90.2506 32.222C90.0466 31.832 89.7676 31.523 89.4136 31.295C89.0656 31.061 88.6816 30.944 88.2616 30.944C87.8296 30.944 87.4396 31.061 87.0916 31.295C86.7436 31.529 86.4676 31.841 86.2636 32.231C86.0596 32.621 85.9576 33.044 85.9576 33.5C85.9576 33.974 86.0626 34.403 86.2726 34.787C86.4826 35.171 86.7616 35.477 87.1096 35.705C87.4636 35.927 87.8476 36.038 88.2616 36.038ZM93.8119 38L93.8029 29H95.9989L96.0079 29.801C96.3139 29.477 96.6799 29.222 97.1059 29.036C97.5319 28.844 97.9909 28.748 98.4829 28.748C98.8129 28.748 99.1429 28.796 99.4729 28.892L98.6089 31.106C98.3809 31.016 98.1529 30.971 97.9249 30.971C97.5709 30.971 97.2469 31.058 96.9529 31.232C96.6649 31.4 96.4339 31.631 96.2599 31.925C96.0919 32.213 96.0079 32.534 96.0079 32.888V38H93.8119ZM103.661 38.234C102.833 38.234 102.077 38.021 101.393 37.595C100.715 37.169 100.172 36.596 99.7637 35.876C99.3617 35.156 99.1607 34.361 99.1607 33.491C99.1607 32.837 99.2777 32.225 99.5117 31.655C99.7457 31.079 100.067 30.575 100.475 30.143C100.889 29.705 101.369 29.363 101.915 29.117C102.461 28.871 103.043 28.748 103.661 28.748C104.363 28.748 105.005 28.898 105.587 29.198C106.175 29.492 106.673 29.897 107.081 30.413C107.489 30.929 107.786 31.517 107.972 32.177C108.158 32.837 108.2 33.527 108.098 34.247H101.519C101.603 34.583 101.741 34.886 101.933 35.156C102.125 35.42 102.368 35.633 102.662 35.795C102.956 35.951 103.289 36.032 103.661 36.038C104.045 36.044 104.393 35.954 104.705 35.768C105.023 35.576 105.287 35.318 105.497 34.994L107.738 35.516C107.372 36.314 106.826 36.968 106.1 37.478C105.374 37.982 104.561 38.234 103.661 38.234ZM101.447 32.6H105.875C105.809 32.24 105.668 31.916 105.452 31.628C105.242 31.334 104.981 31.1 104.669 30.926C104.357 30.752 104.021 30.665 103.661 30.665C103.301 30.665 102.968 30.752 102.662 30.926C102.356 31.094 102.095 31.325 101.879 31.619C101.669 31.907 101.525 32.234 101.447 32.6Z" fill="white"/>
<rect x="141" y="8" width="48" height="48" rx="24" fill="white"/>
<path d="M155 32L174 32" stroke="#FE814B" stroke-width="2" stroke-linejoin="round"/>
<path d="M169.553 37.7956C170.829 37.4537 171.956 36.7004 172.76 35.6526C173.564 34.6047 174 33.3208 174 32C174 30.6792 173.564 29.3953 172.76 28.3474C171.956 27.2996 170.829 26.5463 169.553 26.2044" stroke="#FE814B" stroke-width="2" stroke-linejoin="round"/>
</svg>
