<svg width="1408" height="1184" viewBox="0 0 1408 1184" fill="none" xmlns="http://www.w3.org/2000/svg">
<path d="M-562.174 -512.09C-513.739 -972.918 -100.899 -1307.23 359.93 -1258.79C820.758 -1210.36 1155.07 -797.519 1106.63 -336.691C1058.2 124.138 645.359 458.449 184.531 410.014C-276.298 361.579 -610.609 -51.261 -562.174 -512.09Z" stroke="#B4C48D" stroke-width="2"/>
<path d="M41.0815 1210.4C77.3934 864.92 386.9 614.286 732.384 650.598C1077.87 686.91 1328.5 996.417 1292.19 1341.9C1255.88 1687.38 946.372 1938.02 600.887 1901.71C255.403 1865.39 4.76971 1555.89 41.0815 1210.4Z" stroke="#B4C48D" stroke-width="2"/>
<path d="M-425.268 1342.38C-413.203 1227.58 -310.362 1144.31 -195.567 1156.37C-80.7717 1168.44 2.50716 1271.28 -9.5583 1386.07C-21.6238 1500.87 -124.465 1584.15 -239.26 1572.08C-354.055 1560.02 -437.334 1457.18 -425.268 1342.38Z" stroke="#B4C48D" stroke-width="2"/>
<path d="M138.338 572.073C144.342 514.95 195.516 473.51 252.639 479.514C309.762 485.518 351.203 536.692 345.199 593.815C339.195 650.938 288.02 692.378 230.897 686.374C173.774 680.37 132.334 629.196 138.338 572.073Z" stroke="#B4C48D" stroke-width="2"/>
<path d="M1143.25 195.05C1149.26 137.927 1200.43 96.4867 1257.55 102.491C1314.68 108.494 1356.12 159.669 1350.11 216.792C1344.11 273.915 1292.94 315.355 1235.81 309.351C1178.69 303.347 1137.25 252.173 1143.25 195.05Z" stroke="#B4C48D" stroke-width="2"/>
<path d="M758.57 411.023C770.635 296.227 873.476 212.949 988.272 225.014C1103.07 237.079 1186.35 339.92 1174.28 454.716C1162.21 569.511 1059.37 652.79 944.579 640.724C829.783 628.659 746.505 525.818 758.57 411.023Z" stroke="#B4C48D" stroke-width="2"/>
<path d="M1356.99 1318.55C1369.05 1203.75 1471.89 1120.47 1586.69 1132.54C1701.48 1144.6 1784.76 1247.44 1772.7 1362.24C1760.63 1477.03 1657.79 1560.31 1542.99 1548.25C1428.2 1536.18 1344.92 1433.34 1356.99 1318.55Z" stroke="#B4C48D" stroke-width="2"/>
<path d="M-777.115 671.929C-752.926 441.79 -546.752 274.833 -316.613 299.022C-86.473 323.211 80.4833 529.384 56.2947 759.524C32.106 989.664 -174.068 1156.62 -404.207 1132.43C-634.347 1108.24 -801.303 902.069 -777.115 671.929Z" stroke="#B4C48D" stroke-width="2"/>
<path d="M1190.43 607.239C1214.61 377.099 1420.79 210.143 1650.93 234.332C1881.07 258.52 2048.02 464.694 2023.84 694.834C1999.65 924.973 1793.47 1091.93 1563.33 1067.74C1333.19 1043.55 1166.24 837.378 1190.43 607.239Z" stroke="#B4C48D" stroke-width="2"/>
</svg>
