<svg width="24" height="25" viewBox="0 0 24 25" fill="none" xmlns="http://www.w3.org/2000/svg">
<g id="Solid/05-check-round">
<path id="Vector" fill-rule="evenodd" clip-rule="evenodd" d="M2 12.8941C2 7.37129 6.47715 2.89413 12 2.89413C17.5228 2.89413 22 7.37129 22 12.8941C22 18.417 17.5228 22.8941 12 22.8941C6.47715 22.8941 2 18.417 2 12.8941ZM12.689 15.8697L17.7241 10.5839L16.2759 9.20441L11.2408 14.4903C11.0024 14.7406 10.8404 14.8122 10.5713 14.8684C10.3246 14.9199 10.0682 14.894 9.83254 14.7915C9.59619 14.6887 9.38626 14.5111 9.23504 14.2736C9.08354 14.0355 9 13.7509 9 13.4559H7C7 14.1254 7.1889 14.7835 7.54781 15.3474C7.90701 15.9118 8.42255 16.3593 9.035 16.6256C9.64809 16.8922 10.3258 16.9628 10.9801 16.8262C11.612 16.6942 12.1475 16.4381 12.689 15.8697Z" fill="#FE814B"/>
</g>
</svg>
